<?xml version="1.0" encoding="utf-8" standalone="no"?>
<!DOCTYPE svg PUBLIC "-//W3C//DTD SVG 1.1//EN"
  "http://www.w3.org/Graphics/SVG/1.1/DTD/svg11.dtd">
<svg xmlns:xlink="http://www.w3.org/1999/xlink" width="849.81585pt" height="324.92605pt" viewBox="0 0 849.81585 324.92605" xmlns="http://www.w3.org/2000/svg" version="1.1">
 <metadata>
  <rdf:RDF xmlns:dc="http://purl.org/dc/elements/1.1/" xmlns:cc="http://creativecommons.org/ns#" xmlns:rdf="http://www.w3.org/1999/02/22-rdf-syntax-ns#">
   <cc:Work>
    <dc:type rdf:resource="http://purl.org/dc/dcmitype/StillImage"/>
    <dc:date>2026-07-23T09:49:32.095580</dc:date>
    <dc:format>image/svg+xml</dc:format>
    <dc:creator>
     <cc:Agent>
      <dc:title>Matplotlib v3.10.8, https://matplotlib.org/</dc:title>
     </cc:Agent>
    </dc:creator>
   </cc:Work>
  </rdf:RDF>
 </metadata>
 <defs>
  <style type="text/css">*{stroke-linejoin: round; stroke-linecap: butt}</style>
 </defs>
 <g id="figure_1">
  <g id="patch_1">
   <path d="M 0 324.92605 
L 849.81585 324.92605 
L 849.81585 0 
L 0 0 
z
" style="fill: #ffffff"/>
  </g>
  <g id="axes_1">
   <g id="patch_2">
    <path d="M 47.23835 274.54752 
L 411.22335 274.54752 
L 411.22335 47.376 
L 47.23835 47.376 
z
" style="fill: #ffffff"/>
   </g>
   <g id="matplotlib.axis_1">
    <g id="xtick_1">
     <g id="line2d_1">
      <path d="M 47.23835 274.54752 
L 47.23835 47.376 
" clip-path="url(#p17651292c1)" style="fill: none; stroke: #b0b0b0; stroke-opacity: 0.24; stroke-width: 0.6; stroke-linecap: square"/>
     </g>
     <g id="line2d_2">
      <defs>
       <path id="mdf1752fb80" d="M 0 0 
L 0 3.5 
" style="stroke: #000000; stroke-width: 0.8"/>
      </defs>
      <g>
       <use xlink:href="#mdf1752fb80" x="47.23835" y="274.54752" style="stroke: #000000; stroke-width: 0.8"/>
      </g>
     </g>
     <g id="text_1">
      <!-- 0 -->
      <g transform="translate(44.375225 288.386114) scale(0.09 -0.09)">
       <defs>
        <path id="DejaVuSans-30" d="M 2034 4250 
Q 1547 4250 1301 3770 
Q 1056 3291 1056 2328 
Q 1056 1369 1301 889 
Q 1547 409 2034 409 
Q 2525 409 2770 889 
Q 3016 1369 3016 2328 
Q 3016 3291 2770 3770 
Q 2525 4250 2034 4250 
z
M 2034 4750 
Q 2819 4750 3233 4129 
Q 3647 3509 3647 2328 
Q 3647 1150 3233 529 
Q 2819 -91 2034 -91 
Q 1250 -91 836 529 
Q 422 1150 422 2328 
Q 422 3509 836 4129 
Q 1250 4750 2034 4750 
z
" transform="scale(0.015625)"/>
       </defs>
       <use xlink:href="#DejaVuSans-30"/>
      </g>
     </g>
    </g>
    <g id="xtick_2">
     <g id="line2d_3">
      <path d="M 120.03535 274.54752 
L 120.03535 47.376 
" clip-path="url(#p17651292c1)" style="fill: none; stroke: #b0b0b0; stroke-opacity: 0.24; stroke-width: 0.6; stroke-linecap: square"/>
     </g>
     <g id="line2d_4">
      <g>
       <use xlink:href="#mdf1752fb80" x="120.03535" y="274.54752" style="stroke: #000000; stroke-width: 0.8"/>
      </g>
     </g>
     <g id="text_2">
      <!-- 200 -->
      <g transform="translate(111.445975 288.386114) scale(0.09 -0.09)">
       <defs>
        <path id="DejaVuSans-32" d="M 1228 531 
L 3431 531 
L 3431 0 
L 469 0 
L 469 531 
Q 828 903 1448 1529 
Q 2069 2156 2228 2338 
Q 2531 2678 2651 2914 
Q 2772 3150 2772 3378 
Q 2772 3750 2511 3984 
Q 2250 4219 1831 4219 
Q 1534 4219 1204 4116 
Q 875 4013 500 3803 
L 500 4441 
Q 881 4594 1212 4672 
Q 1544 4750 1819 4750 
Q 2544 4750 2975 4387 
Q 3406 4025 3406 3419 
Q 3406 3131 3298 2873 
Q 3191 2616 2906 2266 
Q 2828 2175 2409 1742 
Q 1991 1309 1228 531 
z
" transform="scale(0.015625)"/>
       </defs>
       <use xlink:href="#DejaVuSans-32"/>
       <use xlink:href="#DejaVuSans-30" transform="translate(63.623047 0)"/>
       <use xlink:href="#DejaVuSans-30" transform="translate(127.246094 0)"/>
      </g>
     </g>
    </g>
    <g id="xtick_3">
     <g id="line2d_5">
      <path d="M 192.83235 274.54752 
L 192.83235 47.376 
" clip-path="url(#p17651292c1)" style="fill: none; stroke: #b0b0b0; stroke-opacity: 0.24; stroke-width: 0.6; stroke-linecap: square"/>
     </g>
     <g id="line2d_6">
      <g>
       <use xlink:href="#mdf1752fb80" x="192.83235" y="274.54752" style="stroke: #000000; stroke-width: 0.8"/>
      </g>
     </g>
     <g id="text_3">
      <!-- 400 -->
      <g transform="translate(184.242975 288.386114) scale(0.09 -0.09)">
       <defs>
        <path id="DejaVuSans-34" d="M 2419 4116 
L 825 1625 
L 2419 1625 
L 2419 4116 
z
M 2253 4666 
L 3047 4666 
L 3047 1625 
L 3713 1625 
L 3713 1100 
L 3047 1100 
L 3047 0 
L 2419 0 
L 2419 1100 
L 313 1100 
L 313 1709 
L 2253 4666 
z
" transform="scale(0.015625)"/>
       </defs>
       <use xlink:href="#DejaVuSans-34"/>
       <use xlink:href="#DejaVuSans-30" transform="translate(63.623047 0)"/>
       <use xlink:href="#DejaVuSans-30" transform="translate(127.246094 0)"/>
      </g>
     </g>
    </g>
    <g id="xtick_4">
     <g id="line2d_7">
      <path d="M 265.62935 274.54752 
L 265.62935 47.376 
" clip-path="url(#p17651292c1)" style="fill: none; stroke: #b0b0b0; stroke-opacity: 0.24; stroke-width: 0.6; stroke-linecap: square"/>
     </g>
     <g id="line2d_8">
      <g>
       <use xlink:href="#mdf1752fb80" x="265.62935" y="274.54752" style="stroke: #000000; stroke-width: 0.8"/>
      </g>
     </g>
     <g id="text_4">
      <!-- 600 -->
      <g transform="translate(257.039975 288.386114) scale(0.09 -0.09)">
       <defs>
        <path id="DejaVuSans-36" d="M 2113 2584 
Q 1688 2584 1439 2293 
Q 1191 2003 1191 1497 
Q 1191 994 1439 701 
Q 1688 409 2113 409 
Q 2538 409 2786 701 
Q 3034 994 3034 1497 
Q 3034 2003 2786 2293 
Q 2538 2584 2113 2584 
z
M 3366 4563 
L 3366 3988 
Q 3128 4100 2886 4159 
Q 2644 4219 2406 4219 
Q 1781 4219 1451 3797 
Q 1122 3375 1075 2522 
Q 1259 2794 1537 2939 
Q 1816 3084 2150 3084 
Q 2853 3084 3261 2657 
Q 3669 2231 3669 1497 
Q 3669 778 3244 343 
Q 2819 -91 2113 -91 
Q 1303 -91 875 529 
Q 447 1150 447 2328 
Q 447 3434 972 4092 
Q 1497 4750 2381 4750 
Q 2619 4750 2861 4703 
Q 3103 4656 3366 4563 
z
" transform="scale(0.015625)"/>
       </defs>
       <use xlink:href="#DejaVuSans-36"/>
       <use xlink:href="#DejaVuSans-30" transform="translate(63.623047 0)"/>
       <use xlink:href="#DejaVuSans-30" transform="translate(127.246094 0)"/>
      </g>
     </g>
    </g>
    <g id="xtick_5">
     <g id="line2d_9">
      <path d="M 338.42635 274.54752 
L 338.42635 47.376 
" clip-path="url(#p17651292c1)" style="fill: none; stroke: #b0b0b0; stroke-opacity: 0.24; stroke-width: 0.6; stroke-linecap: square"/>
     </g>
     <g id="line2d_10">
      <g>
       <use xlink:href="#mdf1752fb80" x="338.42635" y="274.54752" style="stroke: #000000; stroke-width: 0.8"/>
      </g>
     </g>
     <g id="text_5">
      <!-- 800 -->
      <g transform="translate(329.836975 288.386114) scale(0.09 -0.09)">
       <defs>
        <path id="DejaVuSans-38" d="M 2034 2216 
Q 1584 2216 1326 1975 
Q 1069 1734 1069 1313 
Q 1069 891 1326 650 
Q 1584 409 2034 409 
Q 2484 409 2743 651 
Q 3003 894 3003 1313 
Q 3003 1734 2745 1975 
Q 2488 2216 2034 2216 
z
M 1403 2484 
Q 997 2584 770 2862 
Q 544 3141 544 3541 
Q 544 4100 942 4425 
Q 1341 4750 2034 4750 
Q 2731 4750 3128 4425 
Q 3525 4100 3525 3541 
Q 3525 3141 3298 2862 
Q 3072 2584 2669 2484 
Q 3125 2378 3379 2068 
Q 3634 1759 3634 1313 
Q 3634 634 3220 271 
Q 2806 -91 2034 -91 
Q 1263 -91 848 271 
Q 434 634 434 1313 
Q 434 1759 690 2068 
Q 947 2378 1403 2484 
z
M 1172 3481 
Q 1172 3119 1398 2916 
Q 1625 2713 2034 2713 
Q 2441 2713 2670 2916 
Q 2900 3119 2900 3481 
Q 2900 3844 2670 4047 
Q 2441 4250 2034 4250 
Q 1625 4250 1398 4047 
Q 1172 3844 1172 3481 
z
" transform="scale(0.015625)"/>
       </defs>
       <use xlink:href="#DejaVuSans-38"/>
       <use xlink:href="#DejaVuSans-30" transform="translate(63.623047 0)"/>
       <use xlink:href="#DejaVuSans-30" transform="translate(127.246094 0)"/>
      </g>
     </g>
    </g>
    <g id="xtick_6">
     <g id="line2d_11">
      <path d="M 411.22335 274.54752 
L 411.22335 47.376 
" clip-path="url(#p17651292c1)" style="fill: none; stroke: #b0b0b0; stroke-opacity: 0.24; stroke-width: 0.6; stroke-linecap: square"/>
     </g>
     <g id="line2d_12">
      <g>
       <use xlink:href="#mdf1752fb80" x="411.22335" y="274.54752" style="stroke: #000000; stroke-width: 0.8"/>
      </g>
     </g>
     <g id="text_6">
      <!-- 1000 -->
      <g transform="translate(399.77085 288.386114) scale(0.09 -0.09)">
       <defs>
        <path id="DejaVuSans-31" d="M 794 531 
L 1825 531 
L 1825 4091 
L 703 3866 
L 703 4441 
L 1819 4666 
L 2450 4666 
L 2450 531 
L 3481 531 
L 3481 0 
L 794 0 
L 794 531 
z
" transform="scale(0.015625)"/>
       </defs>
       <use xlink:href="#DejaVuSans-31"/>
       <use xlink:href="#DejaVuSans-30" transform="translate(63.623047 0)"/>
       <use xlink:href="#DejaVuSans-30" transform="translate(127.246094 0)"/>
       <use xlink:href="#DejaVuSans-30" transform="translate(190.869141 0)"/>
      </g>
     </g>
    </g>
    <g id="text_7">
     <!-- Generations -->
     <g transform="translate(201.782959 301.096426) scale(0.09 -0.09)">
      <defs>
       <path id="DejaVuSans-47" d="M 3809 666 
L 3809 1919 
L 2778 1919 
L 2778 2438 
L 4434 2438 
L 4434 434 
Q 4069 175 3628 42 
Q 3188 -91 2688 -91 
Q 1594 -91 976 548 
Q 359 1188 359 2328 
Q 359 3472 976 4111 
Q 1594 4750 2688 4750 
Q 3144 4750 3555 4637 
Q 3966 4525 4313 4306 
L 4313 3634 
Q 3963 3931 3569 4081 
Q 3175 4231 2741 4231 
Q 1884 4231 1454 3753 
Q 1025 3275 1025 2328 
Q 1025 1384 1454 906 
Q 1884 428 2741 428 
Q 3075 428 3337 486 
Q 3600 544 3809 666 
z
" transform="scale(0.015625)"/>
       <path id="DejaVuSans-65" d="M 3597 1894 
L 3597 1613 
L 953 1613 
Q 991 1019 1311 708 
Q 1631 397 2203 397 
Q 2534 397 2845 478 
Q 3156 559 3463 722 
L 3463 178 
Q 3153 47 2828 -22 
Q 2503 -91 2169 -91 
Q 1331 -91 842 396 
Q 353 884 353 1716 
Q 353 2575 817 3079 
Q 1281 3584 2069 3584 
Q 2775 3584 3186 3129 
Q 3597 2675 3597 1894 
z
M 3022 2063 
Q 3016 2534 2758 2815 
Q 2500 3097 2075 3097 
Q 1594 3097 1305 2825 
Q 1016 2553 972 2059 
L 3022 2063 
z
" transform="scale(0.015625)"/>
       <path id="DejaVuSans-6e" d="M 3513 2113 
L 3513 0 
L 2938 0 
L 2938 2094 
Q 2938 2591 2744 2837 
Q 2550 3084 2163 3084 
Q 1697 3084 1428 2787 
Q 1159 2491 1159 1978 
L 1159 0 
L 581 0 
L 581 3500 
L 1159 3500 
L 1159 2956 
Q 1366 3272 1645 3428 
Q 1925 3584 2291 3584 
Q 2894 3584 3203 3211 
Q 3513 2838 3513 2113 
z
" transform="scale(0.015625)"/>
       <path id="DejaVuSans-72" d="M 2631 2963 
Q 2534 3019 2420 3045 
Q 2306 3072 2169 3072 
Q 1681 3072 1420 2755 
Q 1159 2438 1159 1844 
L 1159 0 
L 581 0 
L 581 3500 
L 1159 3500 
L 1159 2956 
Q 1341 3275 1631 3429 
Q 1922 3584 2338 3584 
Q 2397 3584 2469 3576 
Q 2541 3569 2628 3553 
L 2631 2963 
z
" transform="scale(0.015625)"/>
       <path id="DejaVuSans-61" d="M 2194 1759 
Q 1497 1759 1228 1600 
Q 959 1441 959 1056 
Q 959 750 1161 570 
Q 1363 391 1709 391 
Q 2188 391 2477 730 
Q 2766 1069 2766 1631 
L 2766 1759 
L 2194 1759 
z
M 3341 1997 
L 3341 0 
L 2766 0 
L 2766 531 
Q 2569 213 2275 61 
Q 1981 -91 1556 -91 
Q 1019 -91 701 211 
Q 384 513 384 1019 
Q 384 1609 779 1909 
Q 1175 2209 1959 2209 
L 2766 2209 
L 2766 2266 
Q 2766 2663 2505 2880 
Q 2244 3097 1772 3097 
Q 1472 3097 1187 3025 
Q 903 2953 641 2809 
L 641 3341 
Q 956 3463 1253 3523 
Q 1550 3584 1831 3584 
Q 2591 3584 2966 3190 
Q 3341 2797 3341 1997 
z
" transform="scale(0.015625)"/>
       <path id="DejaVuSans-74" d="M 1172 4494 
L 1172 3500 
L 2356 3500 
L 2356 3053 
L 1172 3053 
L 1172 1153 
Q 1172 725 1289 603 
Q 1406 481 1766 481 
L 2356 481 
L 2356 0 
L 1766 0 
Q 1100 0 847 248 
Q 594 497 594 1153 
L 594 3053 
L 172 3053 
L 172 3500 
L 594 3500 
L 594 4494 
L 1172 4494 
z
" transform="scale(0.015625)"/>
       <path id="DejaVuSans-69" d="M 603 3500 
L 1178 3500 
L 1178 0 
L 603 0 
L 603 3500 
z
M 603 4863 
L 1178 4863 
L 1178 4134 
L 603 4134 
L 603 4863 
z
" transform="scale(0.015625)"/>
       <path id="DejaVuSans-6f" d="M 1959 3097 
Q 1497 3097 1228 2736 
Q 959 2375 959 1747 
Q 959 1119 1226 758 
Q 1494 397 1959 397 
Q 2419 397 2687 759 
Q 2956 1122 2956 1747 
Q 2956 2369 2687 2733 
Q 2419 3097 1959 3097 
z
M 1959 3584 
Q 2709 3584 3137 3096 
Q 3566 2609 3566 1747 
Q 3566 888 3137 398 
Q 2709 -91 1959 -91 
Q 1206 -91 779 398 
Q 353 888 353 1747 
Q 353 2609 779 3096 
Q 1206 3584 1959 3584 
z
" transform="scale(0.015625)"/>
       <path id="DejaVuSans-73" d="M 2834 3397 
L 2834 2853 
Q 2591 2978 2328 3040 
Q 2066 3103 1784 3103 
Q 1356 3103 1142 2972 
Q 928 2841 928 2578 
Q 928 2378 1081 2264 
Q 1234 2150 1697 2047 
L 1894 2003 
Q 2506 1872 2764 1633 
Q 3022 1394 3022 966 
Q 3022 478 2636 193 
Q 2250 -91 1575 -91 
Q 1294 -91 989 -36 
Q 684 19 347 128 
L 347 722 
Q 666 556 975 473 
Q 1284 391 1588 391 
Q 1994 391 2212 530 
Q 2431 669 2431 922 
Q 2431 1156 2273 1281 
Q 2116 1406 1581 1522 
L 1381 1569 
Q 847 1681 609 1914 
Q 372 2147 372 2553 
Q 372 3047 722 3315 
Q 1072 3584 1716 3584 
Q 2034 3584 2315 3537 
Q 2597 3491 2834 3397 
z
" transform="scale(0.015625)"/>
      </defs>
      <use xlink:href="#DejaVuSans-47"/>
      <use xlink:href="#DejaVuSans-65" transform="translate(77.490234 0)"/>
      <use xlink:href="#DejaVuSans-6e" transform="translate(139.013672 0)"/>
      <use xlink:href="#DejaVuSans-65" transform="translate(202.392578 0)"/>
      <use xlink:href="#DejaVuSans-72" transform="translate(263.916016 0)"/>
      <use xlink:href="#DejaVuSans-61" transform="translate(305.029297 0)"/>
      <use xlink:href="#DejaVuSans-74" transform="translate(366.308594 0)"/>
      <use xlink:href="#DejaVuSans-69" transform="translate(405.517578 0)"/>
      <use xlink:href="#DejaVuSans-6f" transform="translate(433.300781 0)"/>
      <use xlink:href="#DejaVuSans-6e" transform="translate(494.482422 0)"/>
      <use xlink:href="#DejaVuSans-73" transform="translate(557.861328 0)"/>
     </g>
    </g>
   </g>
   <g id="matplotlib.axis_2">
    <g id="ytick_1">
     <g id="line2d_13">
      <path d="M 47.23835 274.54752 
L 411.22335 274.54752 
" clip-path="url(#p17651292c1)" style="fill: none; stroke: #b0b0b0; stroke-opacity: 0.24; stroke-width: 0.6; stroke-linecap: square"/>
     </g>
     <g id="line2d_14">
      <defs>
       <path id="m6063d5e954" d="M 0 0 
L -3.5 0 
" style="stroke: #000000; stroke-width: 0.8"/>
      </defs>
      <g>
       <use xlink:href="#m6063d5e954" x="47.23835" y="274.54752" style="stroke: #000000; stroke-width: 0.8"/>
      </g>
     </g>
     <g id="text_8">
      <!-- 0.0 -->
      <g transform="translate(25.925537 277.966817) scale(0.09 -0.09)">
       <defs>
        <path id="DejaVuSans-2e" d="M 684 794 
L 1344 794 
L 1344 0 
L 684 0 
L 684 794 
z
" transform="scale(0.015625)"/>
       </defs>
       <use xlink:href="#DejaVuSans-30"/>
       <use xlink:href="#DejaVuSans-2e" transform="translate(63.623047 0)"/>
       <use xlink:href="#DejaVuSans-30" transform="translate(95.410156 0)"/>
      </g>
     </g>
    </g>
    <g id="ytick_2">
     <g id="line2d_15">
      <path d="M 47.23835 229.113216 
L 411.22335 229.113216 
" clip-path="url(#p17651292c1)" style="fill: none; stroke: #b0b0b0; stroke-opacity: 0.24; stroke-width: 0.6; stroke-linecap: square"/>
     </g>
     <g id="line2d_16">
      <g>
       <use xlink:href="#m6063d5e954" x="47.23835" y="229.113216" style="stroke: #000000; stroke-width: 0.8"/>
      </g>
     </g>
     <g id="text_9">
      <!-- 0.2 -->
      <g transform="translate(25.925537 232.532513) scale(0.09 -0.09)">
       <use xlink:href="#DejaVuSans-30"/>
       <use xlink:href="#DejaVuSans-2e" transform="translate(63.623047 0)"/>
       <use xlink:href="#DejaVuSans-32" transform="translate(95.410156 0)"/>
      </g>
     </g>
    </g>
    <g id="ytick_3">
     <g id="line2d_17">
      <path d="M 47.23835 183.678912 
L 411.22335 183.678912 
" clip-path="url(#p17651292c1)" style="fill: none; stroke: #b0b0b0; stroke-opacity: 0.24; stroke-width: 0.6; stroke-linecap: square"/>
     </g>
     <g id="line2d_18">
      <g>
       <use xlink:href="#m6063d5e954" x="47.23835" y="183.678912" style="stroke: #000000; stroke-width: 0.8"/>
      </g>
     </g>
     <g id="text_10">
      <!-- 0.4 -->
      <g transform="translate(25.925537 187.098209) scale(0.09 -0.09)">
       <use xlink:href="#DejaVuSans-30"/>
       <use xlink:href="#DejaVuSans-2e" transform="translate(63.623047 0)"/>
       <use xlink:href="#DejaVuSans-34" transform="translate(95.410156 0)"/>
      </g>
     </g>
    </g>
    <g id="ytick_4">
     <g id="line2d_19">
      <path d="M 47.23835 138.244608 
L 411.22335 138.244608 
" clip-path="url(#p17651292c1)" style="fill: none; stroke: #b0b0b0; stroke-opacity: 0.24; stroke-width: 0.6; stroke-linecap: square"/>
     </g>
     <g id="line2d_20">
      <g>
       <use xlink:href="#m6063d5e954" x="47.23835" y="138.244608" style="stroke: #000000; stroke-width: 0.8"/>
      </g>
     </g>
     <g id="text_11">
      <!-- 0.6 -->
      <g transform="translate(25.925537 141.663905) scale(0.09 -0.09)">
       <use xlink:href="#DejaVuSans-30"/>
       <use xlink:href="#DejaVuSans-2e" transform="translate(63.623047 0)"/>
       <use xlink:href="#DejaVuSans-36" transform="translate(95.410156 0)"/>
      </g>
     </g>
    </g>
    <g id="ytick_5">
     <g id="line2d_21">
      <path d="M 47.23835 92.810304 
L 411.22335 92.810304 
" clip-path="url(#p17651292c1)" style="fill: none; stroke: #b0b0b0; stroke-opacity: 0.24; stroke-width: 0.6; stroke-linecap: square"/>
     </g>
     <g id="line2d_22">
      <g>
       <use xlink:href="#m6063d5e954" x="47.23835" y="92.810304" style="stroke: #000000; stroke-width: 0.8"/>
      </g>
     </g>
     <g id="text_12">
      <!-- 0.8 -->
      <g transform="translate(25.925537 96.229601) scale(0.09 -0.09)">
       <use xlink:href="#DejaVuSans-30"/>
       <use xlink:href="#DejaVuSans-2e" transform="translate(63.623047 0)"/>
       <use xlink:href="#DejaVuSans-38" transform="translate(95.410156 0)"/>
      </g>
     </g>
    </g>
    <g id="ytick_6">
     <g id="line2d_23">
      <path d="M 47.23835 47.376 
L 411.22335 47.376 
" clip-path="url(#p17651292c1)" style="fill: none; stroke: #b0b0b0; stroke-opacity: 0.24; stroke-width: 0.6; stroke-linecap: square"/>
     </g>
     <g id="line2d_24">
      <g>
       <use xlink:href="#m6063d5e954" x="47.23835" y="47.376" style="stroke: #000000; stroke-width: 0.8"/>
      </g>
     </g>
     <g id="text_13">
      <!-- 1.0 -->
      <g transform="translate(25.925537 50.795297) scale(0.09 -0.09)">
       <use xlink:href="#DejaVuSans-31"/>
       <use xlink:href="#DejaVuSans-2e" transform="translate(63.623047 0)"/>
       <use xlink:href="#DejaVuSans-30" transform="translate(95.410156 0)"/>
      </g>
     </g>
    </g>
    <g id="text_14">
     <!-- Hypervolume (HV) -->
     <g transform="translate(20.053819 202.560041) rotate(-90) scale(0.09 -0.09)">
      <defs>
       <path id="DejaVuSans-48" d="M 628 4666 
L 1259 4666 
L 1259 2753 
L 3553 2753 
L 3553 4666 
L 4184 4666 
L 4184 0 
L 3553 0 
L 3553 2222 
L 1259 2222 
L 1259 0 
L 628 0 
L 628 4666 
z
" transform="scale(0.015625)"/>
       <path id="DejaVuSans-79" d="M 2059 -325 
Q 1816 -950 1584 -1140 
Q 1353 -1331 966 -1331 
L 506 -1331 
L 506 -850 
L 844 -850 
Q 1081 -850 1212 -737 
Q 1344 -625 1503 -206 
L 1606 56 
L 191 3500 
L 800 3500 
L 1894 763 
L 2988 3500 
L 3597 3500 
L 2059 -325 
z
" transform="scale(0.015625)"/>
       <path id="DejaVuSans-70" d="M 1159 525 
L 1159 -1331 
L 581 -1331 
L 581 3500 
L 1159 3500 
L 1159 2969 
Q 1341 3281 1617 3432 
Q 1894 3584 2278 3584 
Q 2916 3584 3314 3078 
Q 3713 2572 3713 1747 
Q 3713 922 3314 415 
Q 2916 -91 2278 -91 
Q 1894 -91 1617 61 
Q 1341 213 1159 525 
z
M 3116 1747 
Q 3116 2381 2855 2742 
Q 2594 3103 2138 3103 
Q 1681 3103 1420 2742 
Q 1159 2381 1159 1747 
Q 1159 1113 1420 752 
Q 1681 391 2138 391 
Q 2594 391 2855 752 
Q 3116 1113 3116 1747 
z
" transform="scale(0.015625)"/>
       <path id="DejaVuSans-76" d="M 191 3500 
L 800 3500 
L 1894 563 
L 2988 3500 
L 3597 3500 
L 2284 0 
L 1503 0 
L 191 3500 
z
" transform="scale(0.015625)"/>
       <path id="DejaVuSans-6c" d="M 603 4863 
L 1178 4863 
L 1178 0 
L 603 0 
L 603 4863 
z
" transform="scale(0.015625)"/>
       <path id="DejaVuSans-75" d="M 544 1381 
L 544 3500 
L 1119 3500 
L 1119 1403 
Q 1119 906 1312 657 
Q 1506 409 1894 409 
Q 2359 409 2629 706 
Q 2900 1003 2900 1516 
L 2900 3500 
L 3475 3500 
L 3475 0 
L 2900 0 
L 2900 538 
Q 2691 219 2414 64 
Q 2138 -91 1772 -91 
Q 1169 -91 856 284 
Q 544 659 544 1381 
z
M 1991 3584 
L 1991 3584 
z
" transform="scale(0.015625)"/>
       <path id="DejaVuSans-6d" d="M 3328 2828 
Q 3544 3216 3844 3400 
Q 4144 3584 4550 3584 
Q 5097 3584 5394 3201 
Q 5691 2819 5691 2113 
L 5691 0 
L 5113 0 
L 5113 2094 
Q 5113 2597 4934 2840 
Q 4756 3084 4391 3084 
Q 3944 3084 3684 2787 
Q 3425 2491 3425 1978 
L 3425 0 
L 2847 0 
L 2847 2094 
Q 2847 2600 2669 2842 
Q 2491 3084 2119 3084 
Q 1678 3084 1418 2786 
Q 1159 2488 1159 1978 
L 1159 0 
L 581 0 
L 581 3500 
L 1159 3500 
L 1159 2956 
Q 1356 3278 1631 3431 
Q 1906 3584 2284 3584 
Q 2666 3584 2933 3390 
Q 3200 3197 3328 2828 
z
" transform="scale(0.015625)"/>
       <path id="DejaVuSans-20" transform="scale(0.015625)"/>
       <path id="DejaVuSans-28" d="M 1984 4856 
Q 1566 4138 1362 3434 
Q 1159 2731 1159 2009 
Q 1159 1288 1364 580 
Q 1569 -128 1984 -844 
L 1484 -844 
Q 1016 -109 783 600 
Q 550 1309 550 2009 
Q 550 2706 781 3412 
Q 1013 4119 1484 4856 
L 1984 4856 
z
" transform="scale(0.015625)"/>
       <path id="DejaVuSans-56" d="M 1831 0 
L 50 4666 
L 709 4666 
L 2188 738 
L 3669 4666 
L 4325 4666 
L 2547 0 
L 1831 0 
z
" transform="scale(0.015625)"/>
       <path id="DejaVuSans-29" d="M 513 4856 
L 1013 4856 
Q 1481 4119 1714 3412 
Q 1947 2706 1947 2009 
Q 1947 1309 1714 600 
Q 1481 -109 1013 -844 
L 513 -844 
Q 928 -128 1133 580 
Q 1338 1288 1338 2009 
Q 1338 2731 1133 3434 
Q 928 4138 513 4856 
z
" transform="scale(0.015625)"/>
      </defs>
      <use xlink:href="#DejaVuSans-48"/>
      <use xlink:href="#DejaVuSans-79" transform="translate(75.195312 0)"/>
      <use xlink:href="#DejaVuSans-70" transform="translate(134.375 0)"/>
      <use xlink:href="#DejaVuSans-65" transform="translate(197.851562 0)"/>
      <use xlink:href="#DejaVuSans-72" transform="translate(259.375 0)"/>
      <use xlink:href="#DejaVuSans-76" transform="translate(300.488281 0)"/>
      <use xlink:href="#DejaVuSans-6f" transform="translate(359.667969 0)"/>
      <use xlink:href="#DejaVuSans-6c" transform="translate(420.849609 0)"/>
      <use xlink:href="#DejaVuSans-75" transform="translate(448.632812 0)"/>
      <use xlink:href="#DejaVuSans-6d" transform="translate(512.011719 0)"/>
      <use xlink:href="#DejaVuSans-65" transform="translate(609.423828 0)"/>
      <use xlink:href="#DejaVuSans-20" transform="translate(670.947266 0)"/>
      <use xlink:href="#DejaVuSans-28" transform="translate(702.734375 0)"/>
      <use xlink:href="#DejaVuSans-48" transform="translate(741.748047 0)"/>
      <use xlink:href="#DejaVuSans-56" transform="translate(816.943359 0)"/>
      <use xlink:href="#DejaVuSans-29" transform="translate(885.351562 0)"/>
     </g>
    </g>
   </g>
   <g id="line2d_25">
    <path d="M 47.23835 251.830368 
L 50.8782 237.88051 
L 54.51805 224.926547 
L 58.1579 212.897375 
L 61.79775 201.726966 
L 65.4376 191.354007 
L 69.07745 181.721563 
L 72.7173 172.776762 
L 76.35715 164.47051 
L 79.997 156.757215 
L 83.63685 149.560467 
L 87.2767 142.909104 
L 90.91655 136.732544 
L 94.5564 130.996888 
L 98.19625 125.670656 
L 101.8361 120.724618 
L 105.47595 116.131627 
L 109.1158 111.866478 
L 112.75565 107.905764 
L 116.3955 104.227749 
L 120.03535 100.778172 
L 123.6752 97.606444 
L 127.31505 94.661083 
L 130.9549 91.925928 
L 134.59475 89.38597 
L 138.2346 87.027274 
L 141.87445 84.836896 
L 145.5143 82.802821 
L 149.15415 80.913888 
L 152.794 79.159735 
L 156.43385 77.496663 
L 160.0737 75.983887 
L 163.71355 74.579035 
L 167.3534 73.274401 
L 170.99325 72.062829 
L 174.6331 70.937675 
L 178.27295 69.892769 
L 181.9128 68.922381 
L 185.55265 68.021192 
L 189.1925 67.184261 
L 192.83235 66.372924 
L 196.4722 65.651072 
L 200.11205 64.980673 
L 203.7519 64.358055 
L 207.39175 63.779804 
L 211.0316 63.242755 
L 214.67145 62.743965 
L 218.3113 62.280702 
L 221.95115 61.850431 
L 225.591 61.450794 
L 229.23085 61.045531 
L 232.8707 60.70076 
L 236.51055 60.38052 
L 240.1504 60.08306 
L 243.79025 59.806753 
L 247.4301 59.550088 
L 251.06995 59.311665 
L 254.7098 59.090179 
L 258.34965 58.884422 
L 261.9895 58.693271 
L 265.62935 58.481607 
L 269.2692 58.316614 
L 272.90905 58.163316 
L 276.5489 58.020878 
L 280.18875 57.888526 
L 283.8286 57.765538 
L 287.46845 57.651247 
L 291.1083 57.545031 
L 294.74815 57.446314 
L 298.388 57.35456 
L 302.02785 57.235197 
L 305.6677 57.155915 
L 309.30755 57.082208 
L 312.9474 57.013679 
L 316.58725 56.949959 
L 320.2271 56.890703 
L 323.86695 56.835593 
L 327.5068 56.784333 
L 331.14665 56.736648 
L 334.7865 56.692284 
L 338.42635 56.616926 
L 342.0662 56.578507 
L 345.70605 56.542746 
L 349.3459 56.509454 
L 352.98575 56.478455 
L 356.6256 56.449583 
L 360.26545 56.422689 
L 363.9053 56.39763 
L 367.54515 56.374276 
L 371.185 56.352504 
L 374.82485 56.298127 
L 378.4647 56.27919 
L 382.10455 56.26152 
L 385.7444 56.245028 
L 389.38425 56.229628 
L 393.0241 56.215243 
L 396.66395 56.201801 
L 400.3038 56.189233 
L 403.94365 56.177479 
L 407.5835 56.166479 
L 411.22335 56.462861 
" clip-path="url(#p17651292c1)" style="fill: none; stroke: #d73027; stroke-width: 2; stroke-linecap: square"/>
   </g>
   <g id="line2d_26">
    <path d="M 47.23835 254.102083 
L 50.8782 246.217309 
L 54.51805 238.698529 
L 58.1579 231.528721 
L 61.79775 224.691659 
L 65.4376 218.171868 
L 69.07745 211.954594 
L 72.7173 206.02577 
L 76.35715 200.371981 
L 79.997 194.980438 
L 83.63685 189.838945 
L 87.2767 184.935874 
L 90.91655 180.260138 
L 94.5564 175.801165 
L 98.19625 171.548875 
L 101.8361 167.493657 
L 105.47595 163.626346 
L 109.1158 159.938204 
L 112.75565 156.420898 
L 116.3955 153.066486 
L 120.03535 149.86739 
L 123.6752 146.81639 
L 127.31505 143.906598 
L 130.9549 141.131447 
L 134.59475 138.484676 
L 138.2346 135.960315 
L 141.87445 133.552672 
L 145.5143 131.256318 
L 149.15415 129.066079 
L 152.794 126.97702 
L 156.43385 124.984436 
L 160.0737 123.083841 
L 163.71355 121.270955 
L 167.3534 119.541702 
L 170.99325 117.892191 
L 174.6331 116.318715 
L 178.27295 114.817738 
L 181.9128 113.385887 
L 185.55265 112.019949 
L 189.1925 110.716859 
L 192.83235 109.473693 
L 196.4722 108.287665 
L 200.11205 107.156119 
L 203.7519 106.07652 
L 207.39175 105.046453 
L 211.0316 104.063614 
L 214.67145 103.125807 
L 218.3113 102.230939 
L 221.95115 101.377011 
L 225.591 100.562121 
L 229.23085 99.784453 
L 232.8707 99.042276 
L 236.51055 98.33394 
L 240.1504 97.65787 
L 243.79025 97.012567 
L 247.4301 96.3966 
L 251.06995 95.808604 
L 254.7098 95.247279 
L 258.34965 94.711385 
L 261.9895 94.199738 
L 265.62935 93.711212 
L 269.2692 93.24473 
L 272.90905 92.799269 
L 276.5489 92.37385 
L 280.18875 91.967542 
L 283.8286 91.579455 
L 287.46845 91.208742 
L 291.1083 90.854596 
L 294.74815 90.516246 
L 298.388 90.192958 
L 302.02785 89.88403 
L 305.6677 89.588796 
L 309.30755 89.306618 
L 312.9474 89.03689 
L 316.58725 88.779031 
L 320.2271 88.532492 
L 323.86695 88.296744 
L 327.5068 88.071286 
L 331.14665 87.85564 
L 334.7865 87.649349 
L 338.42635 87.451978 
L 342.0662 87.263113 
L 345.70605 87.082358 
L 349.3459 86.909336 
L 352.98575 86.743687 
L 356.6256 86.585068 
L 360.26545 86.433153 
L 363.9053 86.287629 
L 367.54515 86.1482 
L 371.185 86.014582 
L 374.82485 85.886504 
L 378.4647 85.76371 
L 382.10455 85.645953 
L 385.7444 85.533 
L 389.38425 85.424626 
L 393.0241 85.320619 
L 396.66395 85.220776 
L 400.3038 85.124903 
L 403.94365 85.032815 
L 407.5835 84.944337 
L 411.22335 84.859301 
" clip-path="url(#p17651292c1)" style="fill: none; stroke: #2c7bb6; stroke-width: 2; stroke-linecap: square"/>
   </g>
   <g id="line2d_27">
    <path d="M 47.23835 256.373798 
L 50.8782 251.480202 
L 54.51805 246.74531 
L 58.1579 242.16392 
L 61.79775 237.730998 
L 65.4376 233.441678 
L 69.07745 229.291251 
L 72.7173 225.275165 
L 76.35715 221.389015 
L 79.997 217.62854 
L 83.63685 213.989622 
L 87.2767 210.468275 
L 90.91655 207.060645 
L 94.5564 203.763003 
L 98.19625 200.571743 
L 101.8361 197.483379 
L 105.47595 194.494536 
L 109.1158 191.601952 
L 112.75565 188.802472 
L 116.3955 186.093042 
L 120.03535 183.470711 
L 123.6752 180.932624 
L 127.31505 178.476017 
L 130.9549 176.098221 
L 134.59475 173.796652 
L 138.2346 171.56881 
L 141.87445 169.412278 
L 145.5143 167.324719 
L 149.15415 165.303871 
L 152.794 163.347548 
L 156.43385 161.453634 
L 160.0737 159.620082 
L 163.71355 157.844915 
L 167.3534 156.126217 
L 170.99325 154.462138 
L 174.6331 152.850888 
L 178.27295 151.290733 
L 181.9128 149.779999 
L 185.55265 148.317066 
L 189.1925 146.900367 
L 192.83235 145.528386 
L 196.4722 144.199657 
L 200.11205 142.912762 
L 203.7519 141.666329 
L 207.39175 140.459032 
L 211.0316 139.289588 
L 214.67145 138.156756 
L 218.3113 137.059336 
L 221.95115 135.996167 
L 225.591 134.966125 
L 229.23085 133.968125 
L 232.8707 133.001117 
L 236.51055 132.064084 
L 240.1504 131.156044 
L 243.79025 130.276046 
L 247.4301 129.42317 
L 251.06995 128.596529 
L 254.7098 127.795261 
L 258.34965 127.018534 
L 261.9895 126.265545 
L 265.62935 125.535515 
L 269.2692 124.827691 
L 272.90905 124.141345 
L 276.5489 123.475774 
L 280.18875 122.830295 
L 283.8286 122.204251 
L 287.46845 121.597004 
L 291.1083 121.007938 
L 294.74815 120.436457 
L 298.388 119.881985 
L 302.02785 119.343963 
L 305.6677 118.821853 
L 309.30755 118.315132 
L 312.9474 117.823297 
L 316.58725 117.34586 
L 320.2271 116.882347 
L 323.86695 116.432304 
L 327.5068 115.995287 
L 331.14665 115.570871 
L 334.7865 115.158642 
L 338.42635 114.7582 
L 342.0662 114.36916 
L 345.70605 113.991146 
L 349.3459 113.623799 
L 352.98575 113.266768 
L 356.6256 112.919714 
L 360.26545 112.582312 
L 363.9053 112.254244 
L 367.54515 111.935204 
L 371.185 111.624897 
L 374.82485 111.323036 
L 378.4647 111.029344 
L 382.10455 110.743553 
L 385.7444 110.465405 
L 389.38425 110.194649 
L 393.0241 109.931042 
L 396.66395 109.67435 
L 400.3038 109.424347 
L 403.94365 109.180813 
L 407.5835 108.943536 
L 411.22335 108.71231 
" clip-path="url(#p17651292c1)" style="fill: none; stroke: #66a61e; stroke-width: 2; stroke-linecap: square"/>
   </g>
   <g id="line2d_28">
    <path d="M 47.23835 258.645514 
L 50.8782 255.2382 
L 54.51805 251.914598 
L 58.1579 248.672587 
L 61.79775 245.510102 
L 65.4376 242.42513 
L 69.07745 239.415708 
L 72.7173 236.479924 
L 76.35715 233.615914 
L 79.997 230.821861 
L 83.63685 228.095994 
L 87.2767 225.436586 
L 90.91655 222.841956 
L 94.5564 220.310463 
L 98.19625 217.84051 
L 101.8361 215.430537 
L 105.47595 213.079028 
L 109.1158 210.784502 
L 112.75565 208.545515 
L 116.3955 206.360663 
L 120.03535 204.228575 
L 123.6752 202.147916 
L 127.31505 200.117382 
L 130.9549 198.135706 
L 134.59475 196.20165 
L 138.2346 194.314009 
L 141.87445 192.471609 
L 145.5143 190.673303 
L 149.15415 188.917975 
L 152.794 187.204538 
L 156.43385 185.531931 
L 160.0737 183.89912 
L 163.71355 182.305098 
L 167.3534 180.748884 
L 170.99325 179.229519 
L 174.6331 177.746071 
L 178.27295 176.297631 
L 181.9128 174.883312 
L 185.55265 173.502252 
L 189.1925 172.153607 
L 192.83235 170.836557 
L 196.4722 169.550303 
L 200.11205 168.294065 
L 203.7519 167.067083 
L 207.39175 165.868616 
L 211.0316 164.697942 
L 214.67145 163.554359 
L 218.3113 162.437179 
L 221.95115 161.345735 
L 225.591 160.279376 
L 229.23085 159.237465 
L 232.8707 158.219385 
L 236.51055 157.224532 
L 240.1504 156.252318 
L 243.79025 155.302169 
L 247.4301 154.373528 
L 251.06995 153.46585 
L 254.7098 152.578604 
L 258.34965 151.711273 
L 261.9895 150.863352 
L 265.62935 150.034351 
L 269.2692 149.22379 
L 272.90905 148.431203 
L 276.5489 147.656135 
L 280.18875 146.898142 
L 283.8286 146.156791 
L 287.46845 145.431662 
L 291.1083 144.722344 
L 294.74815 144.028437 
L 298.388 143.34955 
L 302.02785 142.685303 
L 305.6677 142.035327 
L 309.30755 141.399258 
L 312.9474 140.776746 
L 316.58725 140.167447 
L 320.2271 139.571026 
L 323.86695 138.987159 
L 327.5068 138.415526 
L 331.14665 137.855818 
L 334.7865 137.307733 
L 338.42635 136.770978 
L 342.0662 136.245264 
L 345.70605 135.730314 
L 349.3459 135.225853 
L 352.98575 134.731617 
L 356.6256 134.247347 
L 360.26545 133.772791 
L 363.9053 133.307702 
L 367.54515 132.851841 
L 371.185 132.404975 
L 374.82485 131.966875 
L 378.4647 131.53732 
L 382.10455 131.116093 
L 385.7444 130.702984 
L 389.38425 130.297787 
L 393.0241 129.900302 
L 396.66395 129.510333 
L 400.3038 129.12769 
L 403.94365 128.752189 
L 407.5835 128.383647 
L 411.22335 128.02189 
" clip-path="url(#p17651292c1)" style="fill: none; stroke: #e6ab02; stroke-width: 2; stroke-linecap: square"/>
   </g>
   <g id="patch_3">
    <path d="M 47.23835 274.54752 
L 47.23835 47.376 
" style="fill: none; stroke: #000000; stroke-width: 0.8; stroke-linejoin: miter; stroke-linecap: square"/>
   </g>
   <g id="patch_4">
    <path d="M 47.23835 274.54752 
L 411.22335 274.54752 
" style="fill: none; stroke: #000000; stroke-width: 0.8; stroke-linejoin: miter; stroke-linecap: square"/>
   </g>
   <g id="text_15">
    <!-- a -->
    <g transform="translate(7.2 315.438394) scale(0.11 -0.11)">
     <use xlink:href="#DejaVuSans-61"/>
    </g>
   </g>
   <g id="legend_1">
    <g id="patch_5">
     <path d="M 52.48835 97.410375 
L 116.8571 97.410375 
Q 118.3571 97.410375 118.3571 95.910375 
L 118.3571 52.626 
Q 118.3571 51.126 116.8571 51.126 
L 52.48835 51.126 
Q 50.98835 51.126 50.98835 52.626 
L 50.98835 95.910375 
Q 50.98835 97.410375 52.48835 97.410375 
z
" style="fill: #ffffff; opacity: 0.8; stroke: #cccccc; stroke-linejoin: miter"/>
    </g>
    <g id="line2d_29">
     <path d="M 53.98835 57.199828 
L 61.48835 57.199828 
L 68.98835 57.199828 
" style="fill: none; stroke: #d73027; stroke-width: 2; stroke-linecap: square"/>
    </g>
    <g id="text_16">
     <!-- IA-NSGA-III -->
     <g transform="translate(74.98835 59.824828) scale(0.075 -0.075)">
      <defs>
       <path id="DejaVuSans-49" d="M 628 4666 
L 1259 4666 
L 1259 0 
L 628 0 
L 628 4666 
z
" transform="scale(0.015625)"/>
       <path id="DejaVuSans-41" d="M 2188 4044 
L 1331 1722 
L 3047 1722 
L 2188 4044 
z
M 1831 4666 
L 2547 4666 
L 4325 0 
L 3669 0 
L 3244 1197 
L 1141 1197 
L 716 0 
L 50 0 
L 1831 4666 
z
" transform="scale(0.015625)"/>
       <path id="DejaVuSans-2d" d="M 313 2009 
L 1997 2009 
L 1997 1497 
L 313 1497 
L 313 2009 
z
" transform="scale(0.015625)"/>
       <path id="DejaVuSans-4e" d="M 628 4666 
L 1478 4666 
L 3547 763 
L 3547 4666 
L 4159 4666 
L 4159 0 
L 3309 0 
L 1241 3903 
L 1241 0 
L 628 0 
L 628 4666 
z
" transform="scale(0.015625)"/>
       <path id="DejaVuSans-53" d="M 3425 4513 
L 3425 3897 
Q 3066 4069 2747 4153 
Q 2428 4238 2131 4238 
Q 1616 4238 1336 4038 
Q 1056 3838 1056 3469 
Q 1056 3159 1242 3001 
Q 1428 2844 1947 2747 
L 2328 2669 
Q 3034 2534 3370 2195 
Q 3706 1856 3706 1288 
Q 3706 609 3251 259 
Q 2797 -91 1919 -91 
Q 1588 -91 1214 -16 
Q 841 59 441 206 
L 441 856 
Q 825 641 1194 531 
Q 1563 422 1919 422 
Q 2459 422 2753 634 
Q 3047 847 3047 1241 
Q 3047 1584 2836 1778 
Q 2625 1972 2144 2069 
L 1759 2144 
Q 1053 2284 737 2584 
Q 422 2884 422 3419 
Q 422 4038 858 4394 
Q 1294 4750 2059 4750 
Q 2388 4750 2728 4690 
Q 3069 4631 3425 4513 
z
" transform="scale(0.015625)"/>
      </defs>
      <use xlink:href="#DejaVuSans-49"/>
      <use xlink:href="#DejaVuSans-41" transform="translate(29.492188 0)"/>
      <use xlink:href="#DejaVuSans-2d" transform="translate(95.650391 0)"/>
      <use xlink:href="#DejaVuSans-4e" transform="translate(131.734375 0)"/>
      <use xlink:href="#DejaVuSans-53" transform="translate(206.539062 0)"/>
      <use xlink:href="#DejaVuSans-47" transform="translate(270.015625 0)"/>
      <use xlink:href="#DejaVuSans-41" transform="translate(347.505859 0)"/>
      <use xlink:href="#DejaVuSans-2d" transform="translate(413.664062 0)"/>
      <use xlink:href="#DejaVuSans-49" transform="translate(449.748047 0)"/>
      <use xlink:href="#DejaVuSans-49" transform="translate(479.240234 0)"/>
      <use xlink:href="#DejaVuSans-49" transform="translate(508.732422 0)"/>
     </g>
    </g>
    <g id="line2d_30">
     <path d="M 53.98835 68.208422 
L 61.48835 68.208422 
L 68.98835 68.208422 
" style="fill: none; stroke: #2c7bb6; stroke-width: 2; stroke-linecap: square"/>
    </g>
    <g id="text_17">
     <!-- NSGA-III -->
     <g transform="translate(74.98835 70.833422) scale(0.075 -0.075)">
      <use xlink:href="#DejaVuSans-4e"/>
      <use xlink:href="#DejaVuSans-53" transform="translate(74.804688 0)"/>
      <use xlink:href="#DejaVuSans-47" transform="translate(138.28125 0)"/>
      <use xlink:href="#DejaVuSans-41" transform="translate(215.771484 0)"/>
      <use xlink:href="#DejaVuSans-2d" transform="translate(281.929688 0)"/>
      <use xlink:href="#DejaVuSans-49" transform="translate(318.013672 0)"/>
      <use xlink:href="#DejaVuSans-49" transform="translate(347.505859 0)"/>
      <use xlink:href="#DejaVuSans-49" transform="translate(376.998047 0)"/>
     </g>
    </g>
    <g id="line2d_31">
     <path d="M 53.98835 79.217016 
L 61.48835 79.217016 
L 68.98835 79.217016 
" style="fill: none; stroke: #66a61e; stroke-width: 2; stroke-linecap: square"/>
    </g>
    <g id="text_18">
     <!-- MOEA/D -->
     <g transform="translate(74.98835 81.842016) scale(0.075 -0.075)">
      <defs>
       <path id="DejaVuSans-4d" d="M 628 4666 
L 1569 4666 
L 2759 1491 
L 3956 4666 
L 4897 4666 
L 4897 0 
L 4281 0 
L 4281 4097 
L 3078 897 
L 2444 897 
L 1241 4097 
L 1241 0 
L 628 0 
L 628 4666 
z
" transform="scale(0.015625)"/>
       <path id="DejaVuSans-4f" d="M 2522 4238 
Q 1834 4238 1429 3725 
Q 1025 3213 1025 2328 
Q 1025 1447 1429 934 
Q 1834 422 2522 422 
Q 3209 422 3611 934 
Q 4013 1447 4013 2328 
Q 4013 3213 3611 3725 
Q 3209 4238 2522 4238 
z
M 2522 4750 
Q 3503 4750 4090 4092 
Q 4678 3434 4678 2328 
Q 4678 1225 4090 567 
Q 3503 -91 2522 -91 
Q 1538 -91 948 565 
Q 359 1222 359 2328 
Q 359 3434 948 4092 
Q 1538 4750 2522 4750 
z
" transform="scale(0.015625)"/>
       <path id="DejaVuSans-45" d="M 628 4666 
L 3578 4666 
L 3578 4134 
L 1259 4134 
L 1259 2753 
L 3481 2753 
L 3481 2222 
L 1259 2222 
L 1259 531 
L 3634 531 
L 3634 0 
L 628 0 
L 628 4666 
z
" transform="scale(0.015625)"/>
       <path id="DejaVuSans-2f" d="M 1625 4666 
L 2156 4666 
L 531 -594 
L 0 -594 
L 1625 4666 
z
" transform="scale(0.015625)"/>
       <path id="DejaVuSans-44" d="M 1259 4147 
L 1259 519 
L 2022 519 
Q 2988 519 3436 956 
Q 3884 1394 3884 2338 
Q 3884 3275 3436 3711 
Q 2988 4147 2022 4147 
L 1259 4147 
z
M 628 4666 
L 1925 4666 
Q 3281 4666 3915 4102 
Q 4550 3538 4550 2338 
Q 4550 1131 3912 565 
Q 3275 0 1925 0 
L 628 0 
L 628 4666 
z
" transform="scale(0.015625)"/>
      </defs>
      <use xlink:href="#DejaVuSans-4d"/>
      <use xlink:href="#DejaVuSans-4f" transform="translate(86.279297 0)"/>
      <use xlink:href="#DejaVuSans-45" transform="translate(164.990234 0)"/>
      <use xlink:href="#DejaVuSans-41" transform="translate(228.173828 0)"/>
      <use xlink:href="#DejaVuSans-2f" transform="translate(296.582031 0)"/>
      <use xlink:href="#DejaVuSans-44" transform="translate(330.273438 0)"/>
     </g>
    </g>
    <g id="line2d_32">
     <path d="M 53.98835 90.225609 
L 61.48835 90.225609 
L 68.98835 90.225609 
" style="fill: none; stroke: #e6ab02; stroke-width: 2; stroke-linecap: square"/>
    </g>
    <g id="text_19">
     <!-- NSGA-II -->
     <g transform="translate(74.98835 92.850609) scale(0.075 -0.075)">
      <use xlink:href="#DejaVuSans-4e"/>
      <use xlink:href="#DejaVuSans-53" transform="translate(74.804688 0)"/>
      <use xlink:href="#DejaVuSans-47" transform="translate(138.28125 0)"/>
      <use xlink:href="#DejaVuSans-41" transform="translate(215.771484 0)"/>
      <use xlink:href="#DejaVuSans-2d" transform="translate(281.929688 0)"/>
      <use xlink:href="#DejaVuSans-49" transform="translate(318.013672 0)"/>
      <use xlink:href="#DejaVuSans-49" transform="translate(347.505859 0)"/>
     </g>
    </g>
   </g>
  </g>
  <g id="axes_2">
   <g id="patch_6">
    <path d="M 467.17835 274.54752 
L 831.16335 274.54752 
L 831.16335 47.376 
L 467.17835 47.376 
z
" style="fill: #ffffff"/>
   </g>
   <g id="matplotlib.axis_3">
    <g id="xtick_7">
     <g id="line2d_33">
      <path d="M 467.17835 274.54752 
L 467.17835 47.376 
" clip-path="url(#p95a5d23b07)" style="fill: none; stroke: #b0b0b0; stroke-opacity: 0.24; stroke-width: 0.6; stroke-linecap: square"/>
     </g>
     <g id="line2d_34">
      <g>
       <use xlink:href="#mdf1752fb80" x="467.17835" y="274.54752" style="stroke: #000000; stroke-width: 0.8"/>
      </g>
     </g>
     <g id="text_20">
      <!-- 0 -->
      <g transform="translate(464.315225 288.386114) scale(0.09 -0.09)">
       <use xlink:href="#DejaVuSans-30"/>
      </g>
     </g>
    </g>
    <g id="xtick_8">
     <g id="line2d_35">
      <path d="M 539.97535 274.54752 
L 539.97535 47.376 
" clip-path="url(#p95a5d23b07)" style="fill: none; stroke: #b0b0b0; stroke-opacity: 0.24; stroke-width: 0.6; stroke-linecap: square"/>
     </g>
     <g id="line2d_36">
      <g>
       <use xlink:href="#mdf1752fb80" x="539.97535" y="274.54752" style="stroke: #000000; stroke-width: 0.8"/>
      </g>
     </g>
     <g id="text_21">
      <!-- 200 -->
      <g transform="translate(531.385975 288.386114) scale(0.09 -0.09)">
       <use xlink:href="#DejaVuSans-32"/>
       <use xlink:href="#DejaVuSans-30" transform="translate(63.623047 0)"/>
       <use xlink:href="#DejaVuSans-30" transform="translate(127.246094 0)"/>
      </g>
     </g>
    </g>
    <g id="xtick_9">
     <g id="line2d_37">
      <path d="M 612.77235 274.54752 
L 612.77235 47.376 
" clip-path="url(#p95a5d23b07)" style="fill: none; stroke: #b0b0b0; stroke-opacity: 0.24; stroke-width: 0.6; stroke-linecap: square"/>
     </g>
     <g id="line2d_38">
      <g>
       <use xlink:href="#mdf1752fb80" x="612.77235" y="274.54752" style="stroke: #000000; stroke-width: 0.8"/>
      </g>
     </g>
     <g id="text_22">
      <!-- 400 -->
      <g transform="translate(604.182975 288.386114) scale(0.09 -0.09)">
       <use xlink:href="#DejaVuSans-34"/>
       <use xlink:href="#DejaVuSans-30" transform="translate(63.623047 0)"/>
       <use xlink:href="#DejaVuSans-30" transform="translate(127.246094 0)"/>
      </g>
     </g>
    </g>
    <g id="xtick_10">
     <g id="line2d_39">
      <path d="M 685.56935 274.54752 
L 685.56935 47.376 
" clip-path="url(#p95a5d23b07)" style="fill: none; stroke: #b0b0b0; stroke-opacity: 0.24; stroke-width: 0.6; stroke-linecap: square"/>
     </g>
     <g id="line2d_40">
      <g>
       <use xlink:href="#mdf1752fb80" x="685.56935" y="274.54752" style="stroke: #000000; stroke-width: 0.8"/>
      </g>
     </g>
     <g id="text_23">
      <!-- 600 -->
      <g transform="translate(676.979975 288.386114) scale(0.09 -0.09)">
       <use xlink:href="#DejaVuSans-36"/>
       <use xlink:href="#DejaVuSans-30" transform="translate(63.623047 0)"/>
       <use xlink:href="#DejaVuSans-30" transform="translate(127.246094 0)"/>
      </g>
     </g>
    </g>
    <g id="xtick_11">
     <g id="line2d_41">
      <path d="M 758.36635 274.54752 
L 758.36635 47.376 
" clip-path="url(#p95a5d23b07)" style="fill: none; stroke: #b0b0b0; stroke-opacity: 0.24; stroke-width: 0.6; stroke-linecap: square"/>
     </g>
     <g id="line2d_42">
      <g>
       <use xlink:href="#mdf1752fb80" x="758.36635" y="274.54752" style="stroke: #000000; stroke-width: 0.8"/>
      </g>
     </g>
     <g id="text_24">
      <!-- 800 -->
      <g transform="translate(749.776975 288.386114) scale(0.09 -0.09)">
       <use xlink:href="#DejaVuSans-38"/>
       <use xlink:href="#DejaVuSans-30" transform="translate(63.623047 0)"/>
       <use xlink:href="#DejaVuSans-30" transform="translate(127.246094 0)"/>
      </g>
     </g>
    </g>
    <g id="xtick_12">
     <g id="line2d_43">
      <path d="M 831.16335 274.54752 
L 831.16335 47.376 
" clip-path="url(#p95a5d23b07)" style="fill: none; stroke: #b0b0b0; stroke-opacity: 0.24; stroke-width: 0.6; stroke-linecap: square"/>
     </g>
     <g id="line2d_44">
      <g>
       <use xlink:href="#mdf1752fb80" x="831.16335" y="274.54752" style="stroke: #000000; stroke-width: 0.8"/>
      </g>
     </g>
     <g id="text_25">
      <!-- 1000 -->
      <g transform="translate(819.71085 288.386114) scale(0.09 -0.09)">
       <use xlink:href="#DejaVuSans-31"/>
       <use xlink:href="#DejaVuSans-30" transform="translate(63.623047 0)"/>
       <use xlink:href="#DejaVuSans-30" transform="translate(127.246094 0)"/>
       <use xlink:href="#DejaVuSans-30" transform="translate(190.869141 0)"/>
      </g>
     </g>
    </g>
    <g id="text_26">
     <!-- Generations -->
     <g transform="translate(621.722959 301.096426) scale(0.09 -0.09)">
      <use xlink:href="#DejaVuSans-47"/>
      <use xlink:href="#DejaVuSans-65" transform="translate(77.490234 0)"/>
      <use xlink:href="#DejaVuSans-6e" transform="translate(139.013672 0)"/>
      <use xlink:href="#DejaVuSans-65" transform="translate(202.392578 0)"/>
      <use xlink:href="#DejaVuSans-72" transform="translate(263.916016 0)"/>
      <use xlink:href="#DejaVuSans-61" transform="translate(305.029297 0)"/>
      <use xlink:href="#DejaVuSans-74" transform="translate(366.308594 0)"/>
      <use xlink:href="#DejaVuSans-69" transform="translate(405.517578 0)"/>
      <use xlink:href="#DejaVuSans-6f" transform="translate(433.300781 0)"/>
      <use xlink:href="#DejaVuSans-6e" transform="translate(494.482422 0)"/>
      <use xlink:href="#DejaVuSans-73" transform="translate(557.861328 0)"/>
     </g>
    </g>
   </g>
   <g id="matplotlib.axis_4">
    <g id="ytick_7">
     <g id="line2d_45">
      <path d="M 467.17835 274.54752 
L 831.16335 274.54752 
" clip-path="url(#p95a5d23b07)" style="fill: none; stroke: #b0b0b0; stroke-opacity: 0.24; stroke-width: 0.6; stroke-linecap: square"/>
     </g>
     <g id="line2d_46">
      <g>
       <use xlink:href="#m6063d5e954" x="467.17835" y="274.54752" style="stroke: #000000; stroke-width: 0.8"/>
      </g>
     </g>
     <g id="text_27">
      <!-- 0.0 -->
      <g transform="translate(445.865537 277.966817) scale(0.09 -0.09)">
       <use xlink:href="#DejaVuSans-30"/>
       <use xlink:href="#DejaVuSans-2e" transform="translate(63.623047 0)"/>
       <use xlink:href="#DejaVuSans-30" transform="translate(95.410156 0)"/>
      </g>
     </g>
    </g>
    <g id="ytick_8">
     <g id="line2d_47">
      <path d="M 467.17835 244.257984 
L 831.16335 244.257984 
" clip-path="url(#p95a5d23b07)" style="fill: none; stroke: #b0b0b0; stroke-opacity: 0.24; stroke-width: 0.6; stroke-linecap: square"/>
     </g>
     <g id="line2d_48">
      <g>
       <use xlink:href="#m6063d5e954" x="467.17835" y="244.257984" style="stroke: #000000; stroke-width: 0.8"/>
      </g>
     </g>
     <g id="text_28">
      <!-- 0.1 -->
      <g transform="translate(445.865537 247.677281) scale(0.09 -0.09)">
       <use xlink:href="#DejaVuSans-30"/>
       <use xlink:href="#DejaVuSans-2e" transform="translate(63.623047 0)"/>
       <use xlink:href="#DejaVuSans-31" transform="translate(95.410156 0)"/>
      </g>
     </g>
    </g>
    <g id="ytick_9">
     <g id="line2d_49">
      <path d="M 467.17835 213.968448 
L 831.16335 213.968448 
" clip-path="url(#p95a5d23b07)" style="fill: none; stroke: #b0b0b0; stroke-opacity: 0.24; stroke-width: 0.6; stroke-linecap: square"/>
     </g>
     <g id="line2d_50">
      <g>
       <use xlink:href="#m6063d5e954" x="467.17835" y="213.968448" style="stroke: #000000; stroke-width: 0.8"/>
      </g>
     </g>
     <g id="text_29">
      <!-- 0.2 -->
      <g transform="translate(445.865537 217.387745) scale(0.09 -0.09)">
       <use xlink:href="#DejaVuSans-30"/>
       <use xlink:href="#DejaVuSans-2e" transform="translate(63.623047 0)"/>
       <use xlink:href="#DejaVuSans-32" transform="translate(95.410156 0)"/>
      </g>
     </g>
    </g>
    <g id="ytick_10">
     <g id="line2d_51">
      <path d="M 467.17835 183.678912 
L 831.16335 183.678912 
" clip-path="url(#p95a5d23b07)" style="fill: none; stroke: #b0b0b0; stroke-opacity: 0.24; stroke-width: 0.6; stroke-linecap: square"/>
     </g>
     <g id="line2d_52">
      <g>
       <use xlink:href="#m6063d5e954" x="467.17835" y="183.678912" style="stroke: #000000; stroke-width: 0.8"/>
      </g>
     </g>
     <g id="text_30">
      <!-- 0.3 -->
      <g transform="translate(445.865537 187.098209) scale(0.09 -0.09)">
       <defs>
        <path id="DejaVuSans-33" d="M 2597 2516 
Q 3050 2419 3304 2112 
Q 3559 1806 3559 1356 
Q 3559 666 3084 287 
Q 2609 -91 1734 -91 
Q 1441 -91 1130 -33 
Q 819 25 488 141 
L 488 750 
Q 750 597 1062 519 
Q 1375 441 1716 441 
Q 2309 441 2620 675 
Q 2931 909 2931 1356 
Q 2931 1769 2642 2001 
Q 2353 2234 1838 2234 
L 1294 2234 
L 1294 2753 
L 1863 2753 
Q 2328 2753 2575 2939 
Q 2822 3125 2822 3475 
Q 2822 3834 2567 4026 
Q 2313 4219 1838 4219 
Q 1578 4219 1281 4162 
Q 984 4106 628 3988 
L 628 4550 
Q 988 4650 1302 4700 
Q 1616 4750 1894 4750 
Q 2613 4750 3031 4423 
Q 3450 4097 3450 3541 
Q 3450 3153 3228 2886 
Q 3006 2619 2597 2516 
z
" transform="scale(0.015625)"/>
       </defs>
       <use xlink:href="#DejaVuSans-30"/>
       <use xlink:href="#DejaVuSans-2e" transform="translate(63.623047 0)"/>
       <use xlink:href="#DejaVuSans-33" transform="translate(95.410156 0)"/>
      </g>
     </g>
    </g>
    <g id="ytick_11">
     <g id="line2d_53">
      <path d="M 467.17835 153.389376 
L 831.16335 153.389376 
" clip-path="url(#p95a5d23b07)" style="fill: none; stroke: #b0b0b0; stroke-opacity: 0.24; stroke-width: 0.6; stroke-linecap: square"/>
     </g>
     <g id="line2d_54">
      <g>
       <use xlink:href="#m6063d5e954" x="467.17835" y="153.389376" style="stroke: #000000; stroke-width: 0.8"/>
      </g>
     </g>
     <g id="text_31">
      <!-- 0.4 -->
      <g transform="translate(445.865537 156.808673) scale(0.09 -0.09)">
       <use xlink:href="#DejaVuSans-30"/>
       <use xlink:href="#DejaVuSans-2e" transform="translate(63.623047 0)"/>
       <use xlink:href="#DejaVuSans-34" transform="translate(95.410156 0)"/>
      </g>
     </g>
    </g>
    <g id="ytick_12">
     <g id="line2d_55">
      <path d="M 467.17835 123.09984 
L 831.16335 123.09984 
" clip-path="url(#p95a5d23b07)" style="fill: none; stroke: #b0b0b0; stroke-opacity: 0.24; stroke-width: 0.6; stroke-linecap: square"/>
     </g>
     <g id="line2d_56">
      <g>
       <use xlink:href="#m6063d5e954" x="467.17835" y="123.09984" style="stroke: #000000; stroke-width: 0.8"/>
      </g>
     </g>
     <g id="text_32">
      <!-- 0.5 -->
      <g transform="translate(445.865537 126.519137) scale(0.09 -0.09)">
       <defs>
        <path id="DejaVuSans-35" d="M 691 4666 
L 3169 4666 
L 3169 4134 
L 1269 4134 
L 1269 2991 
Q 1406 3038 1543 3061 
Q 1681 3084 1819 3084 
Q 2600 3084 3056 2656 
Q 3513 2228 3513 1497 
Q 3513 744 3044 326 
Q 2575 -91 1722 -91 
Q 1428 -91 1123 -41 
Q 819 9 494 109 
L 494 744 
Q 775 591 1075 516 
Q 1375 441 1709 441 
Q 2250 441 2565 725 
Q 2881 1009 2881 1497 
Q 2881 1984 2565 2268 
Q 2250 2553 1709 2553 
Q 1456 2553 1204 2497 
Q 953 2441 691 2322 
L 691 4666 
z
" transform="scale(0.015625)"/>
       </defs>
       <use xlink:href="#DejaVuSans-30"/>
       <use xlink:href="#DejaVuSans-2e" transform="translate(63.623047 0)"/>
       <use xlink:href="#DejaVuSans-35" transform="translate(95.410156 0)"/>
      </g>
     </g>
    </g>
    <g id="ytick_13">
     <g id="line2d_57">
      <path d="M 467.17835 92.810304 
L 831.16335 92.810304 
" clip-path="url(#p95a5d23b07)" style="fill: none; stroke: #b0b0b0; stroke-opacity: 0.24; stroke-width: 0.6; stroke-linecap: square"/>
     </g>
     <g id="line2d_58">
      <g>
       <use xlink:href="#m6063d5e954" x="467.17835" y="92.810304" style="stroke: #000000; stroke-width: 0.8"/>
      </g>
     </g>
     <g id="text_33">
      <!-- 0.6 -->
      <g transform="translate(445.865537 96.229601) scale(0.09 -0.09)">
       <use xlink:href="#DejaVuSans-30"/>
       <use xlink:href="#DejaVuSans-2e" transform="translate(63.623047 0)"/>
       <use xlink:href="#DejaVuSans-36" transform="translate(95.410156 0)"/>
      </g>
     </g>
    </g>
    <g id="ytick_14">
     <g id="line2d_59">
      <path d="M 467.17835 62.520768 
L 831.16335 62.520768 
" clip-path="url(#p95a5d23b07)" style="fill: none; stroke: #b0b0b0; stroke-opacity: 0.24; stroke-width: 0.6; stroke-linecap: square"/>
     </g>
     <g id="line2d_60">
      <g>
       <use xlink:href="#m6063d5e954" x="467.17835" y="62.520768" style="stroke: #000000; stroke-width: 0.8"/>
      </g>
     </g>
     <g id="text_34">
      <!-- 0.7 -->
      <g transform="translate(445.865537 65.940065) scale(0.09 -0.09)">
       <defs>
        <path id="DejaVuSans-37" d="M 525 4666 
L 3525 4666 
L 3525 4397 
L 1831 0 
L 1172 0 
L 2766 4134 
L 525 4134 
L 525 4666 
z
" transform="scale(0.015625)"/>
       </defs>
       <use xlink:href="#DejaVuSans-30"/>
       <use xlink:href="#DejaVuSans-2e" transform="translate(63.623047 0)"/>
       <use xlink:href="#DejaVuSans-37" transform="translate(95.410156 0)"/>
      </g>
     </g>
    </g>
    <g id="text_35">
     <!-- Inverted Generational Distance (IGD) -->
     <g transform="translate(439.993819 244.682151) rotate(-90) scale(0.09 -0.09)">
      <defs>
       <path id="DejaVuSans-64" d="M 2906 2969 
L 2906 4863 
L 3481 4863 
L 3481 0 
L 2906 0 
L 2906 525 
Q 2725 213 2448 61 
Q 2172 -91 1784 -91 
Q 1150 -91 751 415 
Q 353 922 353 1747 
Q 353 2572 751 3078 
Q 1150 3584 1784 3584 
Q 2172 3584 2448 3432 
Q 2725 3281 2906 2969 
z
M 947 1747 
Q 947 1113 1208 752 
Q 1469 391 1925 391 
Q 2381 391 2643 752 
Q 2906 1113 2906 1747 
Q 2906 2381 2643 2742 
Q 2381 3103 1925 3103 
Q 1469 3103 1208 2742 
Q 947 2381 947 1747 
z
" transform="scale(0.015625)"/>
       <path id="DejaVuSans-63" d="M 3122 3366 
L 3122 2828 
Q 2878 2963 2633 3030 
Q 2388 3097 2138 3097 
Q 1578 3097 1268 2742 
Q 959 2388 959 1747 
Q 959 1106 1268 751 
Q 1578 397 2138 397 
Q 2388 397 2633 464 
Q 2878 531 3122 666 
L 3122 134 
Q 2881 22 2623 -34 
Q 2366 -91 2075 -91 
Q 1284 -91 818 406 
Q 353 903 353 1747 
Q 353 2603 823 3093 
Q 1294 3584 2113 3584 
Q 2378 3584 2631 3529 
Q 2884 3475 3122 3366 
z
" transform="scale(0.015625)"/>
      </defs>
      <use xlink:href="#DejaVuSans-49"/>
      <use xlink:href="#DejaVuSans-6e" transform="translate(29.492188 0)"/>
      <use xlink:href="#DejaVuSans-76" transform="translate(92.871094 0)"/>
      <use xlink:href="#DejaVuSans-65" transform="translate(152.050781 0)"/>
      <use xlink:href="#DejaVuSans-72" transform="translate(213.574219 0)"/>
      <use xlink:href="#DejaVuSans-74" transform="translate(254.6875 0)"/>
      <use xlink:href="#DejaVuSans-65" transform="translate(293.896484 0)"/>
      <use xlink:href="#DejaVuSans-64" transform="translate(355.419922 0)"/>
      <use xlink:href="#DejaVuSans-20" transform="translate(418.896484 0)"/>
      <use xlink:href="#DejaVuSans-47" transform="translate(450.683594 0)"/>
      <use xlink:href="#DejaVuSans-65" transform="translate(528.173828 0)"/>
      <use xlink:href="#DejaVuSans-6e" transform="translate(589.697266 0)"/>
      <use xlink:href="#DejaVuSans-65" transform="translate(653.076172 0)"/>
      <use xlink:href="#DejaVuSans-72" transform="translate(714.599609 0)"/>
      <use xlink:href="#DejaVuSans-61" transform="translate(755.712891 0)"/>
      <use xlink:href="#DejaVuSans-74" transform="translate(816.992188 0)"/>
      <use xlink:href="#DejaVuSans-69" transform="translate(856.201172 0)"/>
      <use xlink:href="#DejaVuSans-6f" transform="translate(883.984375 0)"/>
      <use xlink:href="#DejaVuSans-6e" transform="translate(945.166016 0)"/>
      <use xlink:href="#DejaVuSans-61" transform="translate(1008.544922 0)"/>
      <use xlink:href="#DejaVuSans-6c" transform="translate(1069.824219 0)"/>
      <use xlink:href="#DejaVuSans-20" transform="translate(1097.607422 0)"/>
      <use xlink:href="#DejaVuSans-44" transform="translate(1129.394531 0)"/>
      <use xlink:href="#DejaVuSans-69" transform="translate(1206.396484 0)"/>
      <use xlink:href="#DejaVuSans-73" transform="translate(1234.179688 0)"/>
      <use xlink:href="#DejaVuSans-74" transform="translate(1286.279297 0)"/>
      <use xlink:href="#DejaVuSans-61" transform="translate(1325.488281 0)"/>
      <use xlink:href="#DejaVuSans-6e" transform="translate(1386.767578 0)"/>
      <use xlink:href="#DejaVuSans-63" transform="translate(1450.146484 0)"/>
      <use xlink:href="#DejaVuSans-65" transform="translate(1505.126953 0)"/>
      <use xlink:href="#DejaVuSans-20" transform="translate(1566.650391 0)"/>
      <use xlink:href="#DejaVuSans-28" transform="translate(1598.4375 0)"/>
      <use xlink:href="#DejaVuSans-49" transform="translate(1637.451172 0)"/>
      <use xlink:href="#DejaVuSans-47" transform="translate(1666.943359 0)"/>
      <use xlink:href="#DejaVuSans-44" transform="translate(1744.433594 0)"/>
      <use xlink:href="#DejaVuSans-29" transform="translate(1821.435547 0)"/>
     </g>
    </g>
   </g>
   <g id="line2d_61">
    <path d="M 467.17835 117.041933 
L 470.8182 131.02022 
L 474.45805 143.72868 
L 478.0979 155.282669 
L 481.73775 165.787062 
L 485.3776 175.337209 
L 489.01745 184.019797 
L 492.6573 191.913638 
L 496.29715 199.090385 
L 499.937 205.61518 
L 503.57685 211.547251 
L 507.2167 216.940441 
L 510.85655 221.843704 
L 514.4964 226.301549 
L 518.13625 230.354436 
L 521.7761 234.039156 
L 525.41595 237.389152 
L 529.0558 240.434833 
L 532.69565 243.203844 
L 536.3355 245.721318 
L 539.97535 248.010107 
L 543.6152 250.090983 
L 547.25505 251.982836 
L 550.8949 253.702836 
L 554.53475 255.266596 
L 558.1746 256.688308 
L 561.81445 257.980877 
L 565.4543 259.156035 
L 569.09415 260.224448 
L 572.734 261.195812 
L 576.37385 262.078944 
L 580.0137 262.88186 
L 583.65355 263.611846 
L 587.2934 264.275528 
L 590.93325 264.878929 
L 594.5731 265.427525 
L 598.21295 265.926294 
L 601.8528 266.379764 
L 605.49265 266.79205 
L 609.1325 267.166892 
L 612.77235 267.507692 
L 616.4122 267.817543 
L 620.05205 268.099256 
L 623.6919 268.355388 
L 627.33175 268.588262 
L 630.9716 268.799991 
L 634.61145 268.992496 
L 638.2513 269.167524 
L 641.89115 269.326661 
L 645.531 269.471352 
L 649.17085 269.602909 
L 652.8107 269.722526 
L 656.45055 269.831286 
L 660.0904 269.930176 
L 663.73025 270.020093 
L 667.3701 270.101851 
L 671.00995 270.176193 
L 674.6498 270.243791 
L 678.28965 270.305259 
L 681.9295 270.361153 
L 685.56935 270.41198 
L 689.2092 270.458199 
L 692.84905 270.50023 
L 696.4889 270.538453 
L 700.12875 270.573214 
L 703.7686 270.604828 
L 707.40845 270.633579 
L 711.0483 270.659729 
L 714.68815 270.683514 
L 718.328 270.705148 
L 721.96785 270.724827 
L 725.6077 270.742729 
L 729.24755 270.759014 
L 732.8874 270.77383 
L 736.52725 270.787311 
L 740.1671 270.799577 
L 743.80695 270.810739 
L 747.4468 270.820898 
L 751.08665 270.830143 
L 754.7265 270.838559 
L 758.36635 270.846221 
L 762.0062 270.853197 
L 765.64605 270.859549 
L 769.2859 270.865335 
L 772.92575 270.870605 
L 776.5656 270.875406 
L 780.20545 270.879782 
L 783.8453 270.88377 
L 787.48515 270.887407 
L 791.125 270.890723 
L 794.76485 270.893748 
L 798.4047 270.896508 
L 802.04455 270.899028 
L 805.6844 270.90133 
L 809.32425 270.903432 
L 812.9641 270.905354 
L 816.60395 270.907111 
L 820.2438 270.908719 
L 823.88365 270.910191 
L 827.5235 270.911539 
L 831.16335 270.912776 
" clip-path="url(#p95a5d23b07)" style="fill: none; stroke: #d73027; stroke-width: 2; stroke-linecap: square"/>
   </g>
   <g id="line2d_62">
    <path d="M 467.17835 95.839258 
L 470.8182 104.31144 
L 474.45805 112.349688 
L 478.0979 119.976249 
L 481.73775 127.212231 
L 485.3776 134.077658 
L 489.01745 140.59153 
L 492.6573 146.77187 
L 496.29715 152.635779 
L 499.937 158.199482 
L 503.57685 163.478368 
L 507.2167 168.487042 
L 510.85655 173.239356 
L 514.4964 177.748455 
L 518.13625 182.026809 
L 521.7761 186.086248 
L 525.41595 189.937995 
L 529.0558 193.5927 
L 532.69565 197.060464 
L 536.3355 200.350873 
L 539.97535 203.473019 
L 543.6152 206.435529 
L 547.25505 209.246588 
L 550.8949 211.913961 
L 554.53475 214.445015 
L 558.1746 216.846739 
L 561.81445 219.125763 
L 565.4543 221.288379 
L 569.09415 223.340555 
L 572.734 225.287953 
L 576.37385 227.135945 
L 580.0137 228.889628 
L 583.65355 230.553837 
L 587.2934 232.13316 
L 590.93325 233.631948 
L 594.5731 235.054331 
L 598.21295 236.404226 
L 601.8528 237.685349 
L 605.49265 238.901227 
L 609.1325 240.055204 
L 612.77235 241.150455 
L 616.4122 242.18999 
L 620.05205 243.176666 
L 623.6919 244.113193 
L 627.33175 245.002142 
L 630.9716 245.845952 
L 634.61145 246.646938 
L 638.2513 247.407296 
L 641.89115 248.129107 
L 645.531 248.81435 
L 649.17085 249.464898 
L 652.8107 250.082531 
L 656.45055 250.668935 
L 660.0904 251.225712 
L 663.73025 251.754382 
L 667.3701 252.256385 
L 671.00995 252.733088 
L 674.6498 253.185789 
L 678.28965 253.615717 
L 681.9295 254.024042 
L 685.56935 254.411869 
L 689.2092 254.780251 
L 692.84905 255.130185 
L 696.4889 255.462615 
L 700.12875 255.778439 
L 703.7686 256.07851 
L 707.40845 256.363634 
L 711.0483 256.634578 
L 714.68815 256.892069 
L 718.328 257.136796 
L 721.96785 257.369414 
L 725.6077 257.590545 
L 729.24755 257.800776 
L 732.8874 258.000667 
L 736.52725 258.190747 
L 740.1671 258.371521 
L 743.80695 258.543464 
L 747.4468 258.70703 
L 751.08665 258.862649 
L 754.7265 259.010727 
L 758.36635 259.151651 
L 762.0062 259.285788 
L 765.64605 259.413487 
L 769.2859 259.535076 
L 772.92575 259.65087 
L 776.5656 259.761166 
L 780.20545 259.866245 
L 783.8453 259.966374 
L 787.48515 260.061809 
L 791.125 260.152788 
L 794.76485 260.239542 
L 798.4047 260.322286 
L 802.04455 260.401226 
L 805.6844 260.476557 
L 809.32425 260.548464 
L 812.9641 260.617122 
L 816.60395 260.682699 
L 820.2438 260.745352 
L 823.88365 260.805231 
L 827.5235 260.862478 
L 831.16335 260.917229 
" clip-path="url(#p95a5d23b07)" style="fill: none; stroke: #2c7bb6; stroke-width: 2; stroke-linecap: square"/>
   </g>
   <g id="line2d_63">
    <path d="M 467.17835 74.636582 
L 470.8182 81.24525 
L 474.45805 87.605968 
L 478.0979 93.728092 
L 481.73775 99.620623 
L 485.3776 105.292226 
L 489.01745 110.751236 
L 492.6573 116.005674 
L 496.29715 121.063259 
L 499.937 125.931419 
L 503.57685 130.6173 
L 507.2167 135.127781 
L 510.85655 139.46948 
L 514.4964 143.648764 
L 518.13625 147.671763 
L 521.7761 151.544372 
L 525.41595 155.272267 
L 529.0558 158.860907 
L 532.69565 162.315547 
L 536.3355 165.641242 
L 539.97535 168.842859 
L 543.6152 171.925078 
L 547.25505 174.892405 
L 550.8949 177.749175 
L 554.53475 180.499559 
L 558.1746 183.147571 
L 561.81445 185.697074 
L 565.4543 188.151785 
L 569.09415 190.51528 
L 572.734 192.791001 
L 576.37385 194.98226 
L 580.0137 197.092244 
L 583.65355 199.124019 
L 587.2934 201.080537 
L 590.93325 202.964636 
L 594.5731 204.77905 
L 598.21295 206.526407 
L 601.8528 208.209238 
L 605.49265 209.829978 
L 609.1325 211.390968 
L 612.77235 212.894465 
L 616.4122 214.342636 
L 620.05205 215.737569 
L 623.6919 217.081274 
L 627.33175 218.375683 
L 630.9716 219.622656 
L 634.61145 220.823983 
L 638.2513 221.981385 
L 641.89115 223.096522 
L 645.531 224.170987 
L 649.17085 225.206314 
L 652.8107 226.203981 
L 656.45055 227.165409 
L 660.0904 228.091964 
L 663.73025 228.984963 
L 667.3701 229.845672 
L 671.00995 230.675309 
L 674.6498 231.475047 
L 678.28965 232.246013 
L 681.9295 232.989293 
L 685.56935 233.705932 
L 689.2092 234.396936 
L 692.84905 235.06327 
L 696.4889 235.705867 
L 700.12875 236.325622 
L 703.7686 236.923396 
L 707.40845 237.500019 
L 711.0483 238.056289 
L 714.68815 238.592974 
L 718.328 239.110814 
L 721.96785 239.610518 
L 725.6077 240.092771 
L 729.24755 240.558233 
L 732.8874 241.007535 
L 736.52725 241.441289 
L 740.1671 241.86008 
L 743.80695 242.264473 
L 747.4468 242.655012 
L 751.08665 243.03222 
L 754.7265 243.396598 
L 758.36635 243.748632 
L 762.0062 244.088787 
L 765.64605 244.417511 
L 769.2859 244.735236 
L 772.92575 245.042376 
L 776.5656 245.339332 
L 780.20545 245.626486 
L 783.8453 245.90421 
L 787.48515 246.172859 
L 791.125 246.432775 
L 794.76485 246.684288 
L 798.4047 246.927714 
L 802.04455 247.16336 
L 805.6844 247.391518 
L 809.32425 247.612471 
L 812.9641 247.826491 
L 816.60395 248.03384 
L 820.2438 248.234769 
L 823.88365 248.429521 
L 827.5235 248.618328 
L 831.16335 248.801414 
" clip-path="url(#p95a5d23b07)" style="fill: none; stroke: #66a61e; stroke-width: 2; stroke-linecap: square"/>
   </g>
   <g id="line2d_64">
    <path d="M 467.17835 53.433907 
L 470.8182 58.700827 
L 474.45805 63.822357 
L 478.0979 68.802593 
L 481.73775 73.645514 
L 485.3776 78.354989 
L 489.01745 82.934775 
L 492.6573 87.388527 
L 496.29715 91.719794 
L 499.937 95.932026 
L 503.57685 100.028576 
L 507.2167 104.012703 
L 510.85655 107.887573 
L 514.4964 111.656263 
L 518.13625 115.321764 
L 521.7761 118.886984 
L 525.41595 122.354746 
L 529.0558 125.727795 
L 532.69565 129.0088 
L 536.3355 132.200353 
L 539.97535 135.304973 
L 543.6152 138.32511 
L 547.25505 141.263142 
L 550.8949 144.121384 
L 554.53475 146.902081 
L 558.1746 149.607418 
L 561.81445 152.239519 
L 565.4543 154.800445 
L 569.09415 157.292202 
L 572.734 159.716737 
L 576.37385 162.075945 
L 580.0137 164.371665 
L 583.65355 166.605686 
L 587.2934 168.779746 
L 590.93325 170.895533 
L 594.5731 172.954688 
L 598.21295 174.958808 
L 601.8528 176.909442 
L 605.49265 178.808097 
L 609.1325 180.656236 
L 612.77235 182.455283 
L 616.4122 184.206621 
L 620.05205 185.911593 
L 623.6919 187.571506 
L 627.33175 189.187627 
L 630.9716 190.761192 
L 634.61145 192.293399 
L 638.2513 193.785412 
L 641.89115 195.238364 
L 645.531 196.653355 
L 649.17085 198.031454 
L 652.8107 199.373701 
L 656.45055 200.681105 
L 660.0904 201.954647 
L 663.73025 203.195282 
L 667.3701 204.403937 
L 671.00995 205.581511 
L 674.6498 206.728881 
L 678.28965 207.846898 
L 681.9295 208.936387 
L 685.56935 209.998154 
L 689.2092 211.032978 
L 692.84905 212.041618 
L 696.4889 213.024812 
L 700.12875 213.983278 
L 703.7686 214.91771 
L 707.40845 215.828787 
L 711.0483 216.717165 
L 714.68815 217.583485 
L 718.328 218.428368 
L 721.96785 219.252418 
L 725.6077 220.05622 
L 729.24755 220.840347 
L 732.8874 221.605351 
L 736.52725 222.351772 
L 740.1671 223.080133 
L 743.80695 223.790942 
L 747.4468 224.484695 
L 751.08665 225.161871 
L 754.7265 225.822937 
L 758.36635 226.468347 
L 762.0062 227.098543 
L 765.64605 227.713952 
L 769.2859 228.314992 
L 772.92575 228.902066 
L 776.5656 229.475569 
L 780.20545 230.035882 
L 783.8453 230.583377 
L 787.48515 231.118416 
L 791.125 231.641348 
L 794.76485 232.152516 
L 798.4047 232.65225 
L 802.04455 233.140872 
L 805.6844 233.618695 
L 809.32425 234.086024 
L 812.9641 234.543155 
L 816.60395 234.990374 
L 820.2438 235.42796 
L 823.88365 235.856185 
L 827.5235 236.275313 
L 831.16335 236.6856 
" clip-path="url(#p95a5d23b07)" style="fill: none; stroke: #e6ab02; stroke-width: 2; stroke-linecap: square"/>
   </g>
   <g id="patch_7">
    <path d="M 467.17835 274.54752 
L 467.17835 47.376 
" style="fill: none; stroke: #000000; stroke-width: 0.8; stroke-linejoin: miter; stroke-linecap: square"/>
   </g>
   <g id="patch_8">
    <path d="M 467.17835 274.54752 
L 831.16335 274.54752 
" style="fill: none; stroke: #000000; stroke-width: 0.8; stroke-linejoin: miter; stroke-linecap: square"/>
   </g>
   <g id="text_36">
    <!-- b -->
    <g transform="translate(427.14 315.438394) scale(0.11 -0.11)">
     <defs>
      <path id="DejaVuSans-62" d="M 3116 1747 
Q 3116 2381 2855 2742 
Q 2594 3103 2138 3103 
Q 1681 3103 1420 2742 
Q 1159 2381 1159 1747 
Q 1159 1113 1420 752 
Q 1681 391 2138 391 
Q 2594 391 2855 752 
Q 3116 1113 3116 1747 
z
M 1159 2969 
Q 1341 3281 1617 3432 
Q 1894 3584 2278 3584 
Q 2916 3584 3314 3078 
Q 3713 2572 3713 1747 
Q 3713 922 3314 415 
Q 2916 -91 2278 -91 
Q 1894 -91 1617 61 
Q 1341 213 1159 525 
L 1159 0 
L 581 0 
L 581 4863 
L 1159 4863 
L 1159 2969 
z
" transform="scale(0.015625)"/>
     </defs>
     <use xlink:href="#DejaVuSans-62"/>
    </g>
   </g>
   <g id="legend_2">
    <g id="patch_9">
     <path d="M 761.5446 97.410375 
L 825.91335 97.410375 
Q 827.41335 97.410375 827.41335 95.910375 
L 827.41335 52.626 
Q 827.41335 51.126 825.91335 51.126 
L 761.5446 51.126 
Q 760.0446 51.126 760.0446 52.626 
L 760.0446 95.910375 
Q 760.0446 97.410375 761.5446 97.410375 
z
" style="fill: #ffffff; opacity: 0.8; stroke: #cccccc; stroke-linejoin: miter"/>
    </g>
    <g id="line2d_65">
     <path d="M 763.0446 57.199828 
L 770.5446 57.199828 
L 778.0446 57.199828 
" style="fill: none; stroke: #d73027; stroke-width: 2; stroke-linecap: square"/>
    </g>
    <g id="text_37">
     <!-- IA-NSGA-III -->
     <g transform="translate(784.0446 59.824828) scale(0.075 -0.075)">
      <use xlink:href="#DejaVuSans-49"/>
      <use xlink:href="#DejaVuSans-41" transform="translate(29.492188 0)"/>
      <use xlink:href="#DejaVuSans-2d" transform="translate(95.650391 0)"/>
      <use xlink:href="#DejaVuSans-4e" transform="translate(131.734375 0)"/>
      <use xlink:href="#DejaVuSans-53" transform="translate(206.539062 0)"/>
      <use xlink:href="#DejaVuSans-47" transform="translate(270.015625 0)"/>
      <use xlink:href="#DejaVuSans-41" transform="translate(347.505859 0)"/>
      <use xlink:href="#DejaVuSans-2d" transform="translate(413.664062 0)"/>
      <use xlink:href="#DejaVuSans-49" transform="translate(449.748047 0)"/>
      <use xlink:href="#DejaVuSans-49" transform="translate(479.240234 0)"/>
      <use xlink:href="#DejaVuSans-49" transform="translate(508.732422 0)"/>
     </g>
    </g>
    <g id="line2d_66">
     <path d="M 763.0446 68.208422 
L 770.5446 68.208422 
L 778.0446 68.208422 
" style="fill: none; stroke: #2c7bb6; stroke-width: 2; stroke-linecap: square"/>
    </g>
    <g id="text_38">
     <!-- NSGA-III -->
     <g transform="translate(784.0446 70.833422) scale(0.075 -0.075)">
      <use xlink:href="#DejaVuSans-4e"/>
      <use xlink:href="#DejaVuSans-53" transform="translate(74.804688 0)"/>
      <use xlink:href="#DejaVuSans-47" transform="translate(138.28125 0)"/>
      <use xlink:href="#DejaVuSans-41" transform="translate(215.771484 0)"/>
      <use xlink:href="#DejaVuSans-2d" transform="translate(281.929688 0)"/>
      <use xlink:href="#DejaVuSans-49" transform="translate(318.013672 0)"/>
      <use xlink:href="#DejaVuSans-49" transform="translate(347.505859 0)"/>
      <use xlink:href="#DejaVuSans-49" transform="translate(376.998047 0)"/>
     </g>
    </g>
    <g id="line2d_67">
     <path d="M 763.0446 79.217016 
L 770.5446 79.217016 
L 778.0446 79.217016 
" style="fill: none; stroke: #66a61e; stroke-width: 2; stroke-linecap: square"/>
    </g>
    <g id="text_39">
     <!-- MOEA/D -->
     <g transform="translate(784.0446 81.842016) scale(0.075 -0.075)">
      <use xlink:href="#DejaVuSans-4d"/>
      <use xlink:href="#DejaVuSans-4f" transform="translate(86.279297 0)"/>
      <use xlink:href="#DejaVuSans-45" transform="translate(164.990234 0)"/>
      <use xlink:href="#DejaVuSans-41" transform="translate(228.173828 0)"/>
      <use xlink:href="#DejaVuSans-2f" transform="translate(296.582031 0)"/>
      <use xlink:href="#DejaVuSans-44" transform="translate(330.273438 0)"/>
     </g>
    </g>
    <g id="line2d_68">
     <path d="M 763.0446 90.225609 
L 770.5446 90.225609 
L 778.0446 90.225609 
" style="fill: none; stroke: #e6ab02; stroke-width: 2; stroke-linecap: square"/>
    </g>
    <g id="text_40">
     <!-- NSGA-II -->
     <g transform="translate(784.0446 92.850609) scale(0.075 -0.075)">
      <use xlink:href="#DejaVuSans-4e"/>
      <use xlink:href="#DejaVuSans-53" transform="translate(74.804688 0)"/>
      <use xlink:href="#DejaVuSans-47" transform="translate(138.28125 0)"/>
      <use xlink:href="#DejaVuSans-41" transform="translate(215.771484 0)"/>
      <use xlink:href="#DejaVuSans-2d" transform="translate(281.929688 0)"/>
      <use xlink:href="#DejaVuSans-49" transform="translate(318.013672 0)"/>
      <use xlink:href="#DejaVuSans-49" transform="translate(347.505859 0)"/>
     </g>
    </g>
   </g>
  </g>
  <g id="text_41">
   <!-- Comparative convergence tracking (calibrated reconstruction) -->
   <g transform="translate(236.894475 15.406313) scale(0.108 -0.108)">
    <defs>
     <path id="DejaVuSans-Bold-43" d="M 4288 256 
Q 3956 84 3597 -3 
Q 3238 -91 2847 -91 
Q 1681 -91 1000 561 
Q 319 1213 319 2328 
Q 319 3447 1000 4098 
Q 1681 4750 2847 4750 
Q 3238 4750 3597 4662 
Q 3956 4575 4288 4403 
L 4288 3438 
Q 3953 3666 3628 3772 
Q 3303 3878 2944 3878 
Q 2300 3878 1931 3465 
Q 1563 3053 1563 2328 
Q 1563 1606 1931 1193 
Q 2300 781 2944 781 
Q 3303 781 3628 887 
Q 3953 994 4288 1222 
L 4288 256 
z
" transform="scale(0.015625)"/>
     <path id="DejaVuSans-Bold-6f" d="M 2203 2784 
Q 1831 2784 1636 2517 
Q 1441 2250 1441 1747 
Q 1441 1244 1636 976 
Q 1831 709 2203 709 
Q 2569 709 2762 976 
Q 2956 1244 2956 1747 
Q 2956 2250 2762 2517 
Q 2569 2784 2203 2784 
z
M 2203 3584 
Q 3106 3584 3614 3096 
Q 4122 2609 4122 1747 
Q 4122 884 3614 396 
Q 3106 -91 2203 -91 
Q 1297 -91 786 396 
Q 275 884 275 1747 
Q 275 2609 786 3096 
Q 1297 3584 2203 3584 
z
" transform="scale(0.015625)"/>
     <path id="DejaVuSans-Bold-6d" d="M 3781 2919 
Q 3994 3244 4286 3414 
Q 4578 3584 4928 3584 
Q 5531 3584 5847 3212 
Q 6163 2841 6163 2131 
L 6163 0 
L 5038 0 
L 5038 1825 
Q 5041 1866 5042 1909 
Q 5044 1953 5044 2034 
Q 5044 2406 4934 2573 
Q 4825 2741 4581 2741 
Q 4263 2741 4089 2478 
Q 3916 2216 3909 1719 
L 3909 0 
L 2784 0 
L 2784 1825 
Q 2784 2406 2684 2573 
Q 2584 2741 2328 2741 
Q 2006 2741 1831 2477 
Q 1656 2213 1656 1722 
L 1656 0 
L 531 0 
L 531 3500 
L 1656 3500 
L 1656 2988 
Q 1863 3284 2130 3434 
Q 2397 3584 2719 3584 
Q 3081 3584 3359 3409 
Q 3638 3234 3781 2919 
z
" transform="scale(0.015625)"/>
     <path id="DejaVuSans-Bold-70" d="M 1656 506 
L 1656 -1331 
L 538 -1331 
L 538 3500 
L 1656 3500 
L 1656 2988 
Q 1888 3294 2169 3439 
Q 2450 3584 2816 3584 
Q 3463 3584 3878 3070 
Q 4294 2556 4294 1747 
Q 4294 938 3878 423 
Q 3463 -91 2816 -91 
Q 2450 -91 2169 54 
Q 1888 200 1656 506 
z
M 2400 2772 
Q 2041 2772 1848 2508 
Q 1656 2244 1656 1747 
Q 1656 1250 1848 986 
Q 2041 722 2400 722 
Q 2759 722 2948 984 
Q 3138 1247 3138 1747 
Q 3138 2247 2948 2509 
Q 2759 2772 2400 2772 
z
" transform="scale(0.015625)"/>
     <path id="DejaVuSans-Bold-61" d="M 2106 1575 
Q 1756 1575 1579 1456 
Q 1403 1338 1403 1106 
Q 1403 894 1545 773 
Q 1688 653 1941 653 
Q 2256 653 2472 879 
Q 2688 1106 2688 1447 
L 2688 1575 
L 2106 1575 
z
M 3816 1997 
L 3816 0 
L 2688 0 
L 2688 519 
Q 2463 200 2181 54 
Q 1900 -91 1497 -91 
Q 953 -91 614 226 
Q 275 544 275 1050 
Q 275 1666 698 1953 
Q 1122 2241 2028 2241 
L 2688 2241 
L 2688 2328 
Q 2688 2594 2478 2717 
Q 2269 2841 1825 2841 
Q 1466 2841 1156 2769 
Q 847 2697 581 2553 
L 581 3406 
Q 941 3494 1303 3539 
Q 1666 3584 2028 3584 
Q 2975 3584 3395 3211 
Q 3816 2838 3816 1997 
z
" transform="scale(0.015625)"/>
     <path id="DejaVuSans-Bold-72" d="M 3138 2547 
Q 2991 2616 2845 2648 
Q 2700 2681 2553 2681 
Q 2122 2681 1889 2404 
Q 1656 2128 1656 1613 
L 1656 0 
L 538 0 
L 538 3500 
L 1656 3500 
L 1656 2925 
Q 1872 3269 2151 3426 
Q 2431 3584 2822 3584 
Q 2878 3584 2943 3579 
Q 3009 3575 3134 3559 
L 3138 2547 
z
" transform="scale(0.015625)"/>
     <path id="DejaVuSans-Bold-74" d="M 1759 4494 
L 1759 3500 
L 2913 3500 
L 2913 2700 
L 1759 2700 
L 1759 1216 
Q 1759 972 1856 886 
Q 1953 800 2241 800 
L 2816 800 
L 2816 0 
L 1856 0 
Q 1194 0 917 276 
Q 641 553 641 1216 
L 641 2700 
L 84 2700 
L 84 3500 
L 641 3500 
L 641 4494 
L 1759 4494 
z
" transform="scale(0.015625)"/>
     <path id="DejaVuSans-Bold-69" d="M 538 3500 
L 1656 3500 
L 1656 0 
L 538 0 
L 538 3500 
z
M 538 4863 
L 1656 4863 
L 1656 3950 
L 538 3950 
L 538 4863 
z
" transform="scale(0.015625)"/>
     <path id="DejaVuSans-Bold-76" d="M 97 3500 
L 1216 3500 
L 2088 1081 
L 2956 3500 
L 4078 3500 
L 2700 0 
L 1472 0 
L 97 3500 
z
" transform="scale(0.015625)"/>
     <path id="DejaVuSans-Bold-65" d="M 4031 1759 
L 4031 1441 
L 1416 1441 
Q 1456 1047 1700 850 
Q 1944 653 2381 653 
Q 2734 653 3104 758 
Q 3475 863 3866 1075 
L 3866 213 
Q 3469 63 3072 -14 
Q 2675 -91 2278 -91 
Q 1328 -91 801 392 
Q 275 875 275 1747 
Q 275 2603 792 3093 
Q 1309 3584 2216 3584 
Q 3041 3584 3536 3087 
Q 4031 2591 4031 1759 
z
M 2881 2131 
Q 2881 2450 2695 2645 
Q 2509 2841 2209 2841 
Q 1884 2841 1681 2658 
Q 1478 2475 1428 2131 
L 2881 2131 
z
" transform="scale(0.015625)"/>
     <path id="DejaVuSans-Bold-20" transform="scale(0.015625)"/>
     <path id="DejaVuSans-Bold-63" d="M 3366 3391 
L 3366 2478 
Q 3138 2634 2908 2709 
Q 2678 2784 2431 2784 
Q 1963 2784 1702 2511 
Q 1441 2238 1441 1747 
Q 1441 1256 1702 982 
Q 1963 709 2431 709 
Q 2694 709 2930 787 
Q 3166 866 3366 1019 
L 3366 103 
Q 3103 6 2833 -42 
Q 2563 -91 2291 -91 
Q 1344 -91 809 395 
Q 275 881 275 1747 
Q 275 2613 809 3098 
Q 1344 3584 2291 3584 
Q 2566 3584 2833 3536 
Q 3100 3488 3366 3391 
z
" transform="scale(0.015625)"/>
     <path id="DejaVuSans-Bold-6e" d="M 4056 2131 
L 4056 0 
L 2931 0 
L 2931 347 
L 2931 1631 
Q 2931 2084 2911 2256 
Q 2891 2428 2841 2509 
Q 2775 2619 2662 2680 
Q 2550 2741 2406 2741 
Q 2056 2741 1856 2470 
Q 1656 2200 1656 1722 
L 1656 0 
L 538 0 
L 538 3500 
L 1656 3500 
L 1656 2988 
Q 1909 3294 2193 3439 
Q 2478 3584 2822 3584 
Q 3428 3584 3742 3212 
Q 4056 2841 4056 2131 
z
" transform="scale(0.015625)"/>
     <path id="DejaVuSans-Bold-67" d="M 2919 594 
Q 2688 288 2409 144 
Q 2131 0 1766 0 
Q 1125 0 706 504 
Q 288 1009 288 1791 
Q 288 2575 706 3076 
Q 1125 3578 1766 3578 
Q 2131 3578 2409 3434 
Q 2688 3291 2919 2981 
L 2919 3500 
L 4044 3500 
L 4044 353 
Q 4044 -491 3511 -936 
Q 2978 -1381 1966 -1381 
Q 1638 -1381 1331 -1331 
Q 1025 -1281 716 -1178 
L 716 -306 
Q 1009 -475 1290 -558 
Q 1572 -641 1856 -641 
Q 2406 -641 2662 -400 
Q 2919 -159 2919 353 
L 2919 594 
z
M 2181 2772 
Q 1834 2772 1640 2515 
Q 1447 2259 1447 1791 
Q 1447 1309 1634 1061 
Q 1822 813 2181 813 
Q 2531 813 2725 1069 
Q 2919 1325 2919 1791 
Q 2919 2259 2725 2515 
Q 2531 2772 2181 2772 
z
" transform="scale(0.015625)"/>
     <path id="DejaVuSans-Bold-6b" d="M 538 4863 
L 1656 4863 
L 1656 2216 
L 2944 3500 
L 4244 3500 
L 2534 1894 
L 4378 0 
L 3022 0 
L 1656 1459 
L 1656 0 
L 538 0 
L 538 4863 
z
" transform="scale(0.015625)"/>
     <path id="DejaVuSans-Bold-28" d="M 2413 -844 
L 1484 -844 
Q 1006 -72 778 623 
Q 550 1319 550 2003 
Q 550 2688 779 3389 
Q 1009 4091 1484 4856 
L 2413 4856 
Q 2013 4116 1813 3408 
Q 1613 2700 1613 2009 
Q 1613 1319 1811 609 
Q 2009 -100 2413 -844 
z
" transform="scale(0.015625)"/>
     <path id="DejaVuSans-Bold-6c" d="M 538 4863 
L 1656 4863 
L 1656 0 
L 538 0 
L 538 4863 
z
" transform="scale(0.015625)"/>
     <path id="DejaVuSans-Bold-62" d="M 2400 722 
Q 2759 722 2948 984 
Q 3138 1247 3138 1747 
Q 3138 2247 2948 2509 
Q 2759 2772 2400 2772 
Q 2041 2772 1848 2508 
Q 1656 2244 1656 1747 
Q 1656 1250 1848 986 
Q 2041 722 2400 722 
z
M 1656 2988 
Q 1888 3294 2169 3439 
Q 2450 3584 2816 3584 
Q 3463 3584 3878 3070 
Q 4294 2556 4294 1747 
Q 4294 938 3878 423 
Q 3463 -91 2816 -91 
Q 2450 -91 2169 54 
Q 1888 200 1656 506 
L 1656 0 
L 538 0 
L 538 4863 
L 1656 4863 
L 1656 2988 
z
" transform="scale(0.015625)"/>
     <path id="DejaVuSans-Bold-64" d="M 2919 2988 
L 2919 4863 
L 4044 4863 
L 4044 0 
L 2919 0 
L 2919 506 
Q 2688 197 2409 53 
Q 2131 -91 1766 -91 
Q 1119 -91 703 423 
Q 288 938 288 1747 
Q 288 2556 703 3070 
Q 1119 3584 1766 3584 
Q 2128 3584 2408 3439 
Q 2688 3294 2919 2988 
z
M 2181 722 
Q 2541 722 2730 984 
Q 2919 1247 2919 1747 
Q 2919 2247 2730 2509 
Q 2541 2772 2181 2772 
Q 1825 2772 1636 2509 
Q 1447 2247 1447 1747 
Q 1447 1247 1636 984 
Q 1825 722 2181 722 
z
" transform="scale(0.015625)"/>
     <path id="DejaVuSans-Bold-73" d="M 3272 3391 
L 3272 2541 
Q 2913 2691 2578 2766 
Q 2244 2841 1947 2841 
Q 1628 2841 1473 2761 
Q 1319 2681 1319 2516 
Q 1319 2381 1436 2309 
Q 1553 2238 1856 2203 
L 2053 2175 
Q 2913 2066 3209 1816 
Q 3506 1566 3506 1031 
Q 3506 472 3093 190 
Q 2681 -91 1863 -91 
Q 1516 -91 1145 -36 
Q 775 19 384 128 
L 384 978 
Q 719 816 1070 734 
Q 1422 653 1784 653 
Q 2113 653 2278 743 
Q 2444 834 2444 1013 
Q 2444 1163 2330 1236 
Q 2216 1309 1875 1350 
L 1678 1375 
Q 931 1469 631 1722 
Q 331 1975 331 2491 
Q 331 3047 712 3315 
Q 1094 3584 1881 3584 
Q 2191 3584 2531 3537 
Q 2872 3491 3272 3391 
z
" transform="scale(0.015625)"/>
     <path id="DejaVuSans-Bold-75" d="M 500 1363 
L 500 3500 
L 1625 3500 
L 1625 3150 
Q 1625 2866 1622 2436 
Q 1619 2006 1619 1863 
Q 1619 1441 1641 1255 
Q 1663 1069 1716 984 
Q 1784 875 1895 815 
Q 2006 756 2150 756 
Q 2500 756 2700 1025 
Q 2900 1294 2900 1772 
L 2900 3500 
L 4019 3500 
L 4019 0 
L 2900 0 
L 2900 506 
Q 2647 200 2364 54 
Q 2081 -91 1741 -91 
Q 1134 -91 817 281 
Q 500 653 500 1363 
z
" transform="scale(0.015625)"/>
     <path id="DejaVuSans-Bold-29" d="M 513 -844 
Q 913 -100 1113 609 
Q 1313 1319 1313 2009 
Q 1313 2700 1113 3408 
Q 913 4116 513 4856 
L 1441 4856 
Q 1916 4091 2145 3389 
Q 2375 2688 2375 2003 
Q 2375 1319 2147 623 
Q 1919 -72 1441 -844 
L 513 -844 
z
" transform="scale(0.015625)"/>
    </defs>
    <use xlink:href="#DejaVuSans-Bold-43"/>
    <use xlink:href="#DejaVuSans-Bold-6f" transform="translate(73.388672 0)"/>
    <use xlink:href="#DejaVuSans-Bold-6d" transform="translate(142.089844 0)"/>
    <use xlink:href="#DejaVuSans-Bold-70" transform="translate(246.289062 0)"/>
    <use xlink:href="#DejaVuSans-Bold-61" transform="translate(317.871094 0)"/>
    <use xlink:href="#DejaVuSans-Bold-72" transform="translate(385.351562 0)"/>
    <use xlink:href="#DejaVuSans-Bold-61" transform="translate(434.667969 0)"/>
    <use xlink:href="#DejaVuSans-Bold-74" transform="translate(502.148438 0)"/>
    <use xlink:href="#DejaVuSans-Bold-69" transform="translate(549.951172 0)"/>
    <use xlink:href="#DejaVuSans-Bold-76" transform="translate(584.228516 0)"/>
    <use xlink:href="#DejaVuSans-Bold-65" transform="translate(649.414062 0)"/>
    <use xlink:href="#DejaVuSans-Bold-20" transform="translate(717.236328 0)"/>
    <use xlink:href="#DejaVuSans-Bold-63" transform="translate(752.050781 0)"/>
    <use xlink:href="#DejaVuSans-Bold-6f" transform="translate(811.328125 0)"/>
    <use xlink:href="#DejaVuSans-Bold-6e" transform="translate(880.029297 0)"/>
    <use xlink:href="#DejaVuSans-Bold-76" transform="translate(951.220703 0)"/>
    <use xlink:href="#DejaVuSans-Bold-65" transform="translate(1016.40625 0)"/>
    <use xlink:href="#DejaVuSans-Bold-72" transform="translate(1084.228516 0)"/>
    <use xlink:href="#DejaVuSans-Bold-67" transform="translate(1133.544922 0)"/>
    <use xlink:href="#DejaVuSans-Bold-65" transform="translate(1205.126953 0)"/>
    <use xlink:href="#DejaVuSans-Bold-6e" transform="translate(1272.949219 0)"/>
    <use xlink:href="#DejaVuSans-Bold-63" transform="translate(1344.140625 0)"/>
    <use xlink:href="#DejaVuSans-Bold-65" transform="translate(1403.417969 0)"/>
    <use xlink:href="#DejaVuSans-Bold-20" transform="translate(1471.240234 0)"/>
    <use xlink:href="#DejaVuSans-Bold-74" transform="translate(1506.054688 0)"/>
    <use xlink:href="#DejaVuSans-Bold-72" transform="translate(1553.857422 0)"/>
    <use xlink:href="#DejaVuSans-Bold-61" transform="translate(1603.173828 0)"/>
    <use xlink:href="#DejaVuSans-Bold-63" transform="translate(1670.654297 0)"/>
    <use xlink:href="#DejaVuSans-Bold-6b" transform="translate(1729.931641 0)"/>
    <use xlink:href="#DejaVuSans-Bold-69" transform="translate(1796.435547 0)"/>
    <use xlink:href="#DejaVuSans-Bold-6e" transform="translate(1830.712891 0)"/>
    <use xlink:href="#DejaVuSans-Bold-67" transform="translate(1901.904297 0)"/>
    <use xlink:href="#DejaVuSans-Bold-20" transform="translate(1973.486328 0)"/>
    <use xlink:href="#DejaVuSans-Bold-28" transform="translate(2008.300781 0)"/>
    <use xlink:href="#DejaVuSans-Bold-63" transform="translate(2054.003906 0)"/>
    <use xlink:href="#DejaVuSans-Bold-61" transform="translate(2113.28125 0)"/>
    <use xlink:href="#DejaVuSans-Bold-6c" transform="translate(2180.761719 0)"/>
    <use xlink:href="#DejaVuSans-Bold-69" transform="translate(2215.039062 0)"/>
    <use xlink:href="#DejaVuSans-Bold-62" transform="translate(2249.316406 0)"/>
    <use xlink:href="#DejaVuSans-Bold-72" transform="translate(2320.898438 0)"/>
    <use xlink:href="#DejaVuSans-Bold-61" transform="translate(2370.214844 0)"/>
    <use xlink:href="#DejaVuSans-Bold-74" transform="translate(2437.695312 0)"/>
    <use xlink:href="#DejaVuSans-Bold-65" transform="translate(2485.498047 0)"/>
    <use xlink:href="#DejaVuSans-Bold-64" transform="translate(2553.320312 0)"/>
    <use xlink:href="#DejaVuSans-Bold-20" transform="translate(2624.902344 0)"/>
    <use xlink:href="#DejaVuSans-Bold-72" transform="translate(2659.716797 0)"/>
    <use xlink:href="#DejaVuSans-Bold-65" transform="translate(2709.033203 0)"/>
    <use xlink:href="#DejaVuSans-Bold-63" transform="translate(2776.855469 0)"/>
    <use xlink:href="#DejaVuSans-Bold-6f" transform="translate(2836.132812 0)"/>
    <use xlink:href="#DejaVuSans-Bold-6e" transform="translate(2904.833984 0)"/>
    <use xlink:href="#DejaVuSans-Bold-73" transform="translate(2976.025391 0)"/>
    <use xlink:href="#DejaVuSans-Bold-74" transform="translate(3035.546875 0)"/>
    <use xlink:href="#DejaVuSans-Bold-72" transform="translate(3083.349609 0)"/>
    <use xlink:href="#DejaVuSans-Bold-75" transform="translate(3132.666016 0)"/>
    <use xlink:href="#DejaVuSans-Bold-63" transform="translate(3203.857422 0)"/>
    <use xlink:href="#DejaVuSans-Bold-74" transform="translate(3263.134766 0)"/>
    <use xlink:href="#DejaVuSans-Bold-69" transform="translate(3310.9375 0)"/>
    <use xlink:href="#DejaVuSans-Bold-6f" transform="translate(3345.214844 0)"/>
    <use xlink:href="#DejaVuSans-Bold-6e" transform="translate(3413.916016 0)"/>
    <use xlink:href="#DejaVuSans-Bold-29" transform="translate(3485.107422 0)"/>
   </g>
  </g>
 </g>
 <defs>
  <clipPath id="p17651292c1">
   <rect x="47.23835" y="47.376" width="363.985" height="227.17152"/>
  </clipPath>
  <clipPath id="p95a5d23b07">
   <rect x="467.17835" y="47.376" width="363.985" height="227.17152"/>
  </clipPath>
 </defs>
</svg>
